<svg width="47" height="47" viewBox="0 0 47 47" fill="none" xmlns="http://www.w3.org/2000/svg">
<g id="earth">
<path id="Vector" d="M23.5 47C36.4787 47 47 36.4787 47 23.5C47 10.5213 36.4787 0 23.5 0C10.5213 0 0 10.5213 0 23.5C0 36.4787 10.5213 47 23.5 47Z" fill="#285680"/>
<g id="Group">
<path id="Vector_2" d="M23.5 0C20.2343 0 17.1258 0.666914 14.3002 1.87028C14.1713 2.63929 13.5287 3.95286 13.5482 4.37181C13.6389 4.38964 19.5228 -1.62474 18.7927 2.43509C18.3219 5.04845 13.5125 5.03305 13.7191 7.66424C18.7724 9.64553 20.5349 3.90262 24.8273 3.92612C26.2592 3.93422 29.926 1.67012 30.6254 2.13121C33.4583 3.99743 29.9779 10.6131 27.8102 8.41138C25.726 6.32717 22.7521 9.1415 22.8858 12.3918C23.9692 12.4404 24.4319 9.31572 25.4059 10.3578C26.4788 11.5061 26.0915 13.818 24.6069 14.3488C23.1127 14.8828 17.2514 10.3862 18.6914 13.7945C20.2748 17.5772 13.9477 20.5001 20.3348 18.975C23.346 18.253 22.3453 20.5447 23.7658 21.6378C25.4578 22.9368 24.709 19.8437 25.9424 20.3145C27.7373 21.009 25.6336 22.7982 28.4447 21.4993C31.742 19.9953 30.503 22.3404 31.5127 23.8736C33.4057 26.7357 38.0578 29.4828 40.4962 25.7001C41.0707 24.8079 40.702 17.753 44.321 22.4854C46.6191 25.4918 45.8307 18.9337 46.1418 17.2109C43.3915 7.28743 34.2995 0 23.5 0Z" fill="#24AE5F"/>
</g>
<path id="Vector_3" d="M26.6757 34.1009L22.342 30.8531L19.4369 30.9673L16.4233 30.0192L14.0643 28.3929L8.71364 29.6294L6.50707 30.6967L4.05173 34.0045L4.92042 37.8812C5.16838 38.2013 5.42526 38.5149 5.68943 38.822L10.2338 40.9435L13.301 41.3576L15.1259 45.103L15.181 45.4798C17.7676 46.4595 20.5706 47 23.5 47C25.521 47 27.482 46.7447 29.3539 46.2642L29.9706 42.582L32.7736 40.3074L33.9381 36.6762L28.0857 36.6519L26.6757 34.1009Z" fill="#FAC176"/>
<path id="Vector_4" d="M0.303879 27.2657C0.415707 27.2559 0.430293 27.2462 0.440017 27.2365C1.49103 26.1863 2.36621 26.0104 3.24219 24.4343C4.11817 22.8582 3.06716 22.8582 3.24219 20.2311C3.41722 17.6039 3.06716 18.83 3.24219 16.0278C3.3054 15.0197 3.19924 14.4655 1.974 14.0692C0.707431 16.9573 0 20.1452 0 23.5C0 24.782 0.106155 26.0388 0.303879 27.2657Z" fill="#88C057"/>
<path id="Vector_5" d="M24.3103 42.9483C23.4327 42.881 20.1914 41.8681 19.4483 40.5172C18.7052 39.1664 17.0845 36.8707 17.0172 37.2759C16.9711 37.5514 9.63419 35.0531 4.59385 33.2744L4.05173 34.0045L4.92042 37.8812C5.16838 38.2013 5.42526 38.5149 5.68943 38.822L10.2338 40.9435L13.301 41.3576L15.1259 45.103L15.181 45.4798C17.7676 46.4595 20.5706 47 23.5 47C25.521 47 27.482 46.7447 29.3539 46.2642L29.8215 43.4726C29.409 43.3437 28.9334 43.1736 28.3621 42.9483C26.1336 42.0707 25.188 43.0155 24.3103 42.9483Z" fill="#FAC176"/>
<path id="Vector_6" d="M32.7736 40.3074L33.9381 36.6762L28.0857 36.6519L26.6749 34.1009L22.3412 30.8531L19.4361 30.9673L16.4224 30.0192L14.0635 28.3929L8.71282 29.6294L6.50707 30.6967L4.59384 33.2736C9.63419 35.0531 16.971 37.5514 17.0172 37.2759C17.0845 36.8707 18.7052 39.1664 19.4483 40.5172C20.1914 41.8681 23.4327 42.881 24.3103 42.9483C25.1879 43.0155 26.1336 42.0707 28.3621 42.9483C28.9334 43.1736 29.409 43.3437 29.8215 43.4726L29.9706 42.582L32.7736 40.3074Z" fill="#88C057"/>
<path id="Vector_7" d="M32.353 1.74467C32.1958 4.71053 32.0799 6.8539 32.0799 6.8539L27.5517 11.3821C27.5517 11.3821 31.7963 17.4662 32.0799 18.1736C32.3627 18.881 35.8999 19.7303 36.6081 19.3057C37.3156 18.881 40.0043 16.6169 41.1363 18.1736C41.924 19.257 41.8227 20.2027 42.3073 20.868C42.6412 20.8729 43.0585 21.0973 43.5787 21.6216C44.3145 21.842 45.1532 22.0584 45.9004 22.2391C46.1483 20.7886 45.9644 18.2012 46.1427 17.2109C44.1897 10.169 39.0359 4.46986 32.353 1.74467Z" fill="#88C057"/>
<path id="Vector_8" d="M35.1122 3.08417C34.9648 5.8831 34.8448 8.10345 34.8448 8.10345L31.6034 11.3448C31.6034 11.3448 34.6422 15.7004 34.8448 16.2069C35.0474 16.7134 37.5797 17.3211 38.0862 17.0172C38.5927 16.7134 40.5172 15.0927 41.3276 16.2069C42.1379 17.3211 41.6315 18.2328 42.9483 18.6379C44.0609 18.9807 45.5957 19.3202 46.0478 19.4175C46.0543 18.5164 46.0568 17.6825 46.1418 17.2109C44.4685 11.1722 40.4386 6.12216 35.1122 3.08417Z" fill="#FAC176"/>
</g>
</svg>
