<svg width="86" height="75" viewBox="0 0 86 75" fill="none" xmlns="http://www.w3.org/2000/svg">
<g id="jupiter">
<path id="saturn-body" d="M43.0001 74.1418C63.3866 74.1418 79.9131 57.6153 79.9131 37.2288C79.9131 16.8423 63.3866 0.315796 43.0001 0.315796C22.6136 0.315796 6.08713 16.8423 6.08713 37.2288C6.08713 57.6153 22.6136 74.1418 43.0001 74.1418Z" fill="url(#paint0_linear)"/>
<g id="Group">
<path id="Vector" d="M16.8634 30.1149C18.0861 29.7559 19.3154 29.3691 20.5489 28.9549C22.5504 28.2831 23.6132 26.0997 22.9148 24.1074L22.9142 24.1061C22.2291 22.1517 20.1004 21.1045 18.1374 21.7647C16.9971 22.1481 15.8621 22.506 14.7346 22.8375C13.0047 23.3462 11.8697 24.9979 12.0218 26.7948C12.224 29.1827 14.564 30.7901 16.8634 30.1149V30.1149Z" fill="url(#paint1_linear)"/>
<path id="Vector_2" d="M43.0001 0.315796C41.8624 0.315796 40.7373 0.370094 39.6259 0.470933C39.626 0.474306 39.6257 0.468572 39.6259 0.471944C44.5921 0.837865 46.2161 7.2543 42.1227 10.01C39.555 11.7386 36.8019 13.3911 33.901 14.9413C32.0211 15.9458 31.2554 18.3134 32.2085 20.2197C33.1241 22.051 35.3517 22.7601 37.1602 21.8002C44.0198 18.1596 50.1691 13.9569 55.1859 9.48793C56.7117 8.1288 59.0062 8.09676 60.5451 9.44088C60.5705 9.46314 60.5958 9.4854 60.6211 9.50766C62.3789 11.0562 62.503 13.6864 60.8827 15.3782C60.3549 15.9295 59.8596 16.4337 59.5141 16.76C56.0797 20.0039 51.9422 23.129 47.2974 26.0004C45.7762 26.9408 45.0504 28.8057 45.6426 30.4931C46.4691 32.8475 49.1998 33.7399 51.2387 32.4797C56.4213 29.2765 61.0542 25.7628 64.9113 22.0955C66.66 20.433 69.5295 21.0606 70.4413 23.2946C70.4506 23.3174 70.4598 23.34 70.4689 23.3627C70.9666 24.5892 70.7116 25.993 69.8157 26.9671C68.7727 28.101 67.435 29.5193 66.7443 30.1689C60.7459 35.8106 52.6248 41.0895 43.408 45.2932C41.6654 46.088 39.9196 46.8274 38.1787 47.51C36.2704 48.2584 35.2132 50.3657 35.8774 52.3049C36.5789 54.353 38.8404 55.3963 40.8467 54.6129C42.7512 53.8692 44.6575 53.0634 46.5569 52.1971C57.0791 47.3982 66.3521 41.229 73.0715 34.6036C73.1324 35.4708 73.1641 36.3462 73.1641 37.229C73.1641 38.0967 73.1331 38.957 73.0742 39.8098C67.8465 45.1477 60.665 50.2348 52.4393 54.3859C42.8343 59.2306 33.0455 62.1765 24.8182 62.6992C24.685 62.7077 24.5518 62.7161 24.4186 62.7228C20.9121 62.9147 17.8907 62.6252 15.5599 61.9177C18.6173 65.3135 22.2957 68.138 26.4166 70.2138C29.0079 69.9924 31.7132 69.5737 34.4957 68.9636C41.3656 67.4577 48.6958 64.8052 55.8709 61.1848C55.9213 61.1593 55.9716 61.1339 56.022 61.1084C59.2439 59.4756 62.0565 63.8638 59.2311 66.1143C53.7514 70.4794 47.0018 73.318 39.6254 73.9866C40.7369 74.0875 41.8619 74.1418 42.9996 74.1418C63.3861 74.1418 79.9126 57.6153 79.9126 37.2288C79.9126 16.8423 63.3866 0.315796 43.0001 0.315796V0.315796Z" fill="url(#paint2_linear)"/>
</g>
<path id="Vector_3" d="M84.6561 16.2094C81.8214 10.5891 75.0038 7.65327 65.3752 7.86743C68.5252 10.272 71.2772 13.1724 73.5149 16.4522C75.6463 17.1622 77.1522 18.2431 77.857 19.6393C78.5619 21.0338 78.5366 22.8837 77.8452 25.0168C77.0695 27.4046 75.4591 30.1464 73.0967 33.0047C73.0124 33.1058 72.928 33.207 72.842 33.3082C67.5337 39.6182 59.3485 45.7428 49.7418 50.5908C40.1368 55.4355 30.348 58.3814 22.1207 58.9041C21.9875 58.9125 21.8543 58.921 21.721 58.9277C18.0231 59.1301 14.863 58.7979 12.4853 58.0036C10.3539 57.2937 8.84805 56.2128 8.14319 54.8166C7.43833 53.422 7.46362 51.5739 8.15499 49.4408C6.87343 45.7815 6.1517 41.8593 6.09268 37.7768C0.195793 45.3954 -1.49385 52.6261 1.34414 58.2482C4.08265 63.6779 10.5377 66.6019 19.652 66.6019C19.9724 66.6019 20.2961 66.5986 20.625 66.5901C21.1207 66.58 21.6249 66.5598 22.1359 66.5328C25.1998 66.3659 28.4442 65.9038 31.7982 65.1686C38.6681 63.6628 45.9983 61.0103 53.1734 57.3898C60.3468 53.7694 66.8355 49.4492 72.1288 44.8187C74.7138 42.5574 77.0139 40.2219 78.9683 37.8561C79.2937 37.4632 79.6074 37.072 79.9075 36.6807C83.936 31.4769 86 26.4552 86 22.0018C86 19.9344 85.5548 17.9918 84.6561 16.2094V16.2094Z" fill="url(#paint3_linear)"/>
<path id="Vector_4" d="M86 22.0018C86 26.4552 83.936 31.4769 79.9075 36.6807C79.6073 37.072 79.2937 37.4632 78.9682 37.8561C77.0138 40.2219 74.7138 42.5574 72.1287 44.8187C66.8355 49.4492 60.3467 53.7694 53.1733 57.3898C45.9983 61.0103 38.668 63.6628 31.7982 65.1686C28.4442 65.9038 25.1998 66.3659 22.1358 66.5328C21.6249 66.5598 21.1207 66.58 20.6249 66.5901C20.2961 66.5986 19.9724 66.6019 19.652 66.6019C18.5205 66.6019 17.4295 66.5564 16.3806 66.467C17.5542 66.3794 18.7532 66.2512 19.974 66.0809C21.63 65.8516 23.3263 65.5463 25.0497 65.1686C31.9196 63.6628 39.2498 61.0103 46.4249 57.3898C53.5983 53.7694 60.0871 49.4492 65.3803 44.8187C67.9653 42.5574 70.2654 40.2219 72.2198 37.8561C75.3242 34.0991 77.4186 30.4213 78.4674 26.9661C78.9885 25.2512 79.2515 23.5902 79.2515 22.0018C79.2515 19.9344 78.8064 17.9918 77.9076 16.2094C75.8756 12.1809 71.7948 9.53178 66.0986 8.43401C65.8608 8.24178 65.6197 8.05292 65.3752 7.86743C75.0038 7.65327 81.8214 10.5891 84.656 16.2094C85.5548 17.9918 86 19.9344 86 22.0018V22.0018Z" fill="url(#paint4_linear)"/>
<path id="Vector_5" d="M12.4838 58.0036C10.3524 57.2937 8.84652 56.2128 8.14335 54.8166C7.43849 53.422 7.46378 51.5739 8.15515 49.4408C7.55012 47.7142 7.07138 45.9313 6.72806 44.0986C6.3419 42.0461 6.12404 39.9341 6.09284 37.7768C4.587 39.7223 3.35737 41.6423 2.40547 43.5167C2.57359 44.4964 2.781 45.4627 3.02551 46.4141C3.48098 48.1868 3.5781 50.0249 3.43258 51.8494C3.34253 52.9779 3.50189 53.9794 3.9243 54.8164C5.08445 57.1131 8.40641 58.5532 13.1162 58.9023C14.504 59.0068 16.0098 59.0152 17.6168 58.9225C17.6168 58.9208 17.6168 58.9208 17.6168 58.9208C15.6555 58.7962 13.9254 58.4842 12.4838 58.0036V58.0036Z" fill="url(#paint5_linear)"/>
</g>
<defs>
<linearGradient id="paint0_linear" x1="6.0873" y1="37.2288" x2="79.9131" y2="37.2288" gradientUnits="userSpaceOnUse">
<stop stop-color="#FECA9C"/>
<stop offset="0.5213" stop-color="#FD8087"/>
<stop offset="1" stop-color="#F46700"/>
</linearGradient>
<linearGradient id="paint1_linear" x1="-23.439" y1="25.9185" x2="70.8238" y2="25.9185" gradientUnits="userSpaceOnUse">
<stop stop-color="#FECA9C"/>
<stop offset="0.5213" stop-color="#FD8087"/>
<stop offset="1" stop-color="#F46700"/>
</linearGradient>
<linearGradient id="paint2_linear" x1="-23.439" y1="37.2288" x2="70.8237" y2="37.2288" gradientUnits="userSpaceOnUse">
<stop stop-color="#FECA9C"/>
<stop offset="0.5213" stop-color="#FD8087"/>
<stop offset="1" stop-color="#F46700"/>
</linearGradient>
<linearGradient id="paint3_linear" x1="-2.33884" y1="37.2291" x2="89.9803" y2="37.2291" gradientUnits="userSpaceOnUse">
<stop stop-color="#FEF056"/>
<stop offset="0.5213" stop-color="#F4D902"/>
<stop offset="1" stop-color="#FE9738"/>
</linearGradient>
<linearGradient id="paint4_linear" x1="-22.5738" y1="37.2291" x2="64.881" y2="37.2291" gradientUnits="userSpaceOnUse">
<stop stop-color="#FEF056"/>
<stop offset="0.5213" stop-color="#F4D902"/>
<stop offset="1" stop-color="#FE9738"/>
</linearGradient>
<linearGradient id="paint5_linear" x1="-11.7128" y1="48.3818" x2="30.4139" y2="48.3818" gradientUnits="userSpaceOnUse">
<stop stop-color="#FEF056"/>
<stop offset="0.5213" stop-color="#F4D902"/>
<stop offset="1" stop-color="#FE9738"/>
</linearGradient>
</defs>
</svg>
