<svg width="52" height="53" viewBox="0 0 52 53" fill="none" xmlns="http://www.w3.org/2000/svg">
<g id="mars">
<path id="Vector" d="M2.68088 37.736C2.61198 37.5967 2.54417 37.4566 2.47765 37.3159C2.54406 37.4567 2.61198 37.5967 2.68088 37.736Z" fill="#FF4F19"/>
<path id="Vector_2" d="M2.41884 37.1899C2.35514 37.053 2.2923 36.9158 2.23088 36.7778C2.29219 36.9159 2.35514 37.053 2.41884 37.1899Z" fill="#FF4F19"/>
<path id="Vector_3" d="M2.17011 36.6389C2.11063 36.503 2.0517 36.3667 1.9945 36.2297C2.0517 36.3667 2.11063 36.5029 2.17011 36.6389Z" fill="#FF4F19"/>
<path id="Vector_4" d="M1.93533 36.0849C1.87911 35.9478 1.82321 35.8105 1.76926 35.6722C1.82321 35.8106 1.87911 35.9478 1.93533 36.0849Z" fill="#FF4F19"/>
<path id="Vector_5" d="M32.8859 1.15222C37.0629 2.29871 40.8191 4.46223 43.8749 7.35766C42.8443 7.2334 41.7975 7.16201 40.7334 7.16201C27.2708 7.16201 16.1982 17.3939 14.8675 30.5053C14.8672 30.5088 14.8669 30.5124 14.8665 30.5158C14.8664 30.5174 14.8663 30.5189 14.8661 30.5204C18.2992 31.115 22.1275 31.4287 26.0001 31.4287C30.5348 31.4287 34.9689 31.0038 38.8232 30.1997C40.3441 29.8814 41.7702 29.5057 43.0634 29.0809C43.5179 28.9302 44.0071 29.179 44.157 29.6343C44.3059 30.0888 44.0588 30.578 43.6035 30.7279C42.7609 31.0045 41.8607 31.2584 40.9227 31.4926C40.9117 31.5016 40.9066 31.5148 40.8952 31.5235L39.1991 32.7955L40.9637 33.2821C41.3438 33.3871 41.6053 33.7341 41.6002 34.1277C41.5951 34.5221 41.326 34.8632 40.9434 34.9579C36.5702 36.0515 31.4023 36.6287 26.0001 36.6287C25.6184 36.6287 25.2815 36.379 25.1707 36.0133C25.0598 35.6477 25.202 35.2525 25.5194 35.0408C25.7971 34.8555 25.7869 34.5804 25.77 34.4712C25.7531 34.3611 25.6785 34.0954 25.3569 34.004L20.6131 32.9553C20.606 32.9537 20.601 32.9486 20.5939 32.9468C18.5748 32.7956 16.6071 32.5692 14.7508 32.2575C14.7406 32.5578 14.7335 32.859 14.7335 33.1619C14.7335 39.0341 16.6847 44.4473 19.9693 48.7986C21.9814 47.8823 24.0516 46.9524 26.0366 47.0294C29.1587 47.1666 30.7542 46.2855 30.7694 46.2762C31.1841 46.0451 31.7131 46.1873 31.9493 46.5994C32.1855 47.0125 32.0483 47.5372 31.637 47.7767C31.5575 47.8241 29.6539 48.9193 25.9639 48.761C24.5078 48.6867 22.7919 49.4203 21.0958 50.1905C21.0958 50.1905 21.0959 50.1906 21.096 50.1907C21.0959 50.1908 21.0958 50.1908 21.0956 50.1909C21.6533 50.8331 22.2417 51.4481 22.8588 52.0329C21.4658 51.865 20.107 51.5866 18.7906 51.2075C18.7905 51.2075 18.7903 51.2076 18.7902 51.2077C18.7864 51.2066 18.7826 51.2053 18.7788 51.2043C18.5613 51.1415 18.3449 51.0758 18.1297 51.0075C17.9958 50.9654 17.863 50.9207 17.7301 50.8767C17.6788 50.8594 17.6273 50.8426 17.5762 50.8252C16.9933 50.6278 16.4186 50.4132 15.8561 50.1747C15.862 50.1749 15.8685 50.1743 15.8746 50.1744C10.5148 47.9066 6.07346 43.8942 3.2648 38.848C7.70355 46.8283 16.2205 52.2287 26.0001 52.2287C40.3594 52.2287 52.0001 40.588 52.0001 26.2287C52.0001 14.2533 43.9031 4.17071 32.8859 1.15222ZM29.4667 25.362C29.4388 25.3637 29.3931 25.3611 29.3559 25.3611C28.1177 25.3611 27.3551 25.7505 26.4749 26.1998C25.5397 26.6772 24.5054 27.2053 22.9134 27.2053C22.4919 27.2053 22.0324 27.168 21.5246 27.0834C21.0524 27.0047 20.7332 26.5578 20.812 26.0864C20.8899 25.6142 21.335 25.29 21.809 25.3738C23.6735 25.6828 24.6054 25.2079 25.687 24.6561C26.6553 24.161 27.7174 23.5787 29.4811 23.6287C29.9593 23.6362 30.3411 24.0307 30.3334 24.5097C30.3258 24.9828 29.939 25.362 29.4667 25.362ZM36.2147 24.1644C35.4369 25.1546 33.5419 25.3307 32.98 25.3611C32.9638 25.362 32.9487 25.362 32.9325 25.362C32.4755 25.362 32.0938 25.0048 32.0684 24.5427C32.0422 24.0654 32.4078 23.6565 32.8851 23.6303C33.7162 23.5828 34.6717 23.3222 34.852 23.0928C35.1474 22.717 35.6916 22.6502 36.069 22.9473C36.4449 23.2427 36.5109 23.7878 36.2147 24.1644ZM22.2821 36.3688C22.1171 36.533 21.8919 36.6286 21.6667 36.6286C21.4416 36.6286 21.2156 36.5329 21.0514 36.3772C20.8949 36.2122 20.8001 35.987 20.8001 35.7619C20.8001 35.5368 20.8949 35.3108 21.0514 35.1466C21.3722 34.8258 21.9527 34.8258 22.282 35.1466C22.4462 35.3108 22.5333 35.5368 22.5333 35.7619C22.5333 35.987 22.4462 36.2122 22.2821 36.3688ZM33.5486 40.7021C33.3836 40.8663 33.1584 40.9619 32.9333 40.9619C32.7082 40.9619 32.4822 40.8662 32.318 40.7105C32.1614 40.5456 32.0666 40.3203 32.0666 40.0952C32.0666 39.8701 32.1614 39.6441 32.318 39.4799C32.6387 39.1591 33.2193 39.1591 33.5485 39.4799C33.7128 39.6441 33.7999 39.8701 33.7999 40.0952C33.7999 40.3203 33.7129 40.5456 33.5486 40.7021ZM40.482 21.6247C40.317 21.789 40.0918 21.8845 39.8666 21.8845C39.6415 21.8845 39.4155 21.7888 39.2513 21.6332C39.0948 21.4682 39 21.243 39 21.0178C39 20.7927 39.0948 20.5667 39.2513 20.4025C39.5721 20.0817 40.1526 20.0817 40.4819 20.4025C40.6461 20.5667 40.7332 20.7927 40.7332 21.0178C40.7332 21.243 40.6462 21.4682 40.482 21.6247ZM43.9486 25.1021C43.7836 25.2663 43.5584 25.3619 43.3333 25.3619C43.1082 25.3619 42.8822 25.2662 42.718 25.1106C42.5614 24.9456 42.4666 24.7203 42.4666 24.4952C42.4666 24.2701 42.5614 24.0441 42.718 23.8799C43.0387 23.5591 43.6193 23.5591 43.9485 23.8799C44.1128 24.0441 44.1999 24.2701 44.1999 24.4952C44.1999 24.7203 44.1129 24.9456 43.9486 25.1021ZM40.0588 14.3695C39.9936 14.3848 39.9294 14.3915 39.865 14.3915C39.4698 14.3915 39.1126 14.1198 39.0212 13.7178C38.9146 13.2514 39.2057 12.7868 39.6729 12.6802C42.3605 12.0657 44.6918 11.3079 46.6492 10.4363C47.0083 10.9051 47.3525 11.3856 47.6795 11.8787C45.5559 12.8578 42.9996 13.6979 40.0588 14.3695Z" fill="#FF4F19"/>
<path id="Vector_6" d="M2.95575 38.2761C2.88035 38.1324 2.80646 37.9876 2.73366 37.8424C2.80646 37.9877 2.88045 38.1324 2.95575 38.2761Z" fill="#FF4F19"/>
<path id="Vector_7" d="M3.2428 38.8091C3.15928 38.6584 3.07759 38.5068 2.99699 38.3543C3.07749 38.5068 3.15939 38.6584 3.2428 38.8091Z" fill="#FF4F19"/>
<path id="Vector_8" d="M0.324856 30.3402C0.309365 30.2429 0.294415 30.1454 0.280006 30.0477C0.294415 30.1454 0.309365 30.2429 0.324856 30.3402Z" fill="#FF4F19"/>
<path id="Vector_9" d="M29.8637 0.514816C30.0105 0.5367 30.1566 0.560641 30.3025 0.585016C30.1565 0.56075 30.0104 0.5367 29.8637 0.514816Z" fill="#FF4F19"/>
<path id="Vector_10" d="M30.4844 0.615238C30.641 0.642538 30.7969 0.671788 30.9526 0.701905C30.7969 0.671897 30.641 0.64243 30.4844 0.615238Z" fill="#FF4F19"/>
<path id="Vector_11" d="M0.0472025 27.7767C0.0421108 27.6908 0.0362608 27.6052 0.0320358 27.519C0.0362608 27.6052 0.0422192 27.6908 0.0472025 27.7767Z" fill="#FF4F19"/>
<path id="Vector_12" d="M0.0158841 27.0925C0.0135008 27.0203 0.0100341 26.9482 0.00830078 26.8758C0.0100341 26.9481 0.0135008 27.0202 0.0158841 27.0925Z" fill="#FF4F19"/>
<path id="Vector_13" d="M29.236 0.429008C29.373 0.446017 29.5093 0.465192 29.6457 0.484367C29.5093 0.465192 29.373 0.446017 29.236 0.429008Z" fill="#FF4F19"/>
<path id="Vector_14" d="M26.6587 0.237019C26.7416 0.239077 26.8239 0.243302 26.9066 0.246119C26.8239 0.243302 26.7416 0.239077 26.6587 0.237019Z" fill="#FF4F19"/>
<path id="Vector_15" d="M27.312 0.261543C27.4155 0.266743 27.5186 0.27411 27.6218 0.280502C27.5186 0.274218 27.4157 0.266743 27.312 0.261543Z" fill="#FF4F19"/>
<path id="Vector_16" d="M31.0972 0.729538C31.264 0.762688 31.4299 0.797896 31.5955 0.834296C31.4298 0.798005 31.2638 0.762688 31.0972 0.729538Z" fill="#FF4F19"/>
<path id="Vector_17" d="M31.7022 0.857578C31.8791 0.897228 32.0552 0.938828 32.2307 0.982053C32.0552 0.938937 31.8792 0.89712 31.7022 0.857578Z" fill="#FF4F19"/>
<path id="Vector_18" d="M32.2988 0.998627C32.4868 1.04543 32.6739 1.09428 32.8602 1.1452C32.6739 1.09439 32.4868 1.04543 32.2988 0.998627Z" fill="#FF4F19"/>
<path id="Vector_19" d="M0.232855 29.7113C0.219964 29.6153 0.207289 29.5193 0.19548 29.4231C0.207397 29.5193 0.220072 29.6153 0.232855 29.7113Z" fill="#FF4F19"/>
<path id="Vector_20" d="M0.155854 29.0756C0.145562 28.9814 0.135162 28.8874 0.125954 28.7929C0.135162 28.8874 0.145562 28.9814 0.155854 29.0756Z" fill="#FF4F19"/>
<path id="Vector_21" d="M0.0938605 28.4322C0.0861689 28.3408 0.0780439 28.2497 0.0713272 28.1582C0.0780439 28.2497 0.0862772 28.341 0.0938605 28.4322Z" fill="#FF4F19"/>
<path id="Vector_22" d="M27.9597 0.30191C28.0759 0.310577 28.1916 0.321519 28.3075 0.33181C28.1916 0.321519 28.0759 0.310577 27.9597 0.30191Z" fill="#FF4F19"/>
<path id="Vector_23" d="M0.837597 32.7966C0.810622 32.6931 0.785381 32.5888 0.759598 32.4847C0.785381 32.5888 0.810622 32.6931 0.837597 32.7966Z" fill="#FF4F19"/>
<path id="Vector_24" d="M1.71758 35.5363C1.66276 35.3935 1.60827 35.2505 1.55595 35.1065C1.60827 35.2505 1.66276 35.3934 1.71758 35.5363Z" fill="#FF4F19"/>
<path id="Vector_25" d="M1.00117 33.3964C0.969758 33.2868 0.940508 33.1763 0.9105 33.0663C0.940508 33.1764 0.969866 33.2868 1.00117 33.3964Z" fill="#FF4F19"/>
<path id="Vector_26" d="M0.68789 32.1908C0.664165 32.09 0.641956 31.9886 0.619423 31.8873C0.641956 31.9886 0.664273 32.09 0.68789 32.1908Z" fill="#FF4F19"/>
<path id="Vector_27" d="M1.52842 35.0285C1.35996 34.5603 1.20526 34.0857 1.06335 33.6054C1.20526 34.0856 1.36007 34.5603 1.52842 35.0285Z" fill="#FF4F19"/>
<path id="Vector_28" d="M0.552537 31.5799C0.531737 31.4804 0.511912 31.3804 0.492195 31.2805C0.511912 31.3805 0.531628 31.4804 0.552537 31.5799Z" fill="#FF4F19"/>
<path id="Vector_29" d="M0.431345 30.9629C0.413254 30.8646 0.395921 30.766 0.379021 30.6673C0.396029 30.766 0.413362 30.8645 0.431345 30.9629Z" fill="#FF4F19"/>
<path id="Vector_30" d="M28.6011 0.357819C28.7281 0.370494 28.8544 0.385335 28.981 0.399744C28.8544 0.385335 28.7281 0.370494 28.6011 0.357819Z" fill="#FF4F19"/>
<path id="Vector_31" d="M15.8744 50.1745C15.8684 50.1744 15.8618 50.1749 15.8558 50.1747C16.4184 50.4134 16.9932 50.6279 17.576 50.8252C17.6271 50.8428 17.6787 50.8596 17.7299 50.8767C17.8628 50.9208 17.9955 50.9654 18.1294 51.0076C18.3446 51.0758 18.5609 51.1415 18.7786 51.2043C18.7824 51.2054 18.7861 51.2067 18.7899 51.2078C18.79 51.2078 18.7903 51.2077 18.7904 51.2075C20.1066 51.5866 21.4656 51.865 22.8586 52.0329C22.2414 51.4482 21.6531 50.8331 21.0954 50.1909C20.9372 50.2628 20.7789 50.3346 20.6214 50.4064C20.0012 50.6887 19.3918 50.9652 18.7996 51.2038C18.7169 51.18 18.6342 51.1564 18.5517 51.1319C18.2593 51.0448 17.9701 50.951 17.6818 50.8547C17.4962 50.7921 17.3092 50.7322 17.1255 50.6654C16.924 50.5931 16.7267 50.5118 16.5276 50.4344C16.3094 50.3489 16.0906 50.2648 15.8753 50.1737C16.8798 50.1984 18.4116 49.5076 19.9028 48.8289C19.9267 48.818 19.9506 48.8072 19.9746 48.7964C20.3342 49.2728 20.7047 49.7405 21.0956 50.1906C22.7917 49.4205 24.5076 48.6868 25.9637 48.7612C29.6538 48.9194 31.5572 47.8243 31.6368 47.7768C32.0481 47.5373 32.1852 47.0126 31.9491 46.5996C31.7129 46.1874 31.1839 46.0452 30.7692 46.2763C30.7539 46.2856 29.1586 47.1667 26.0364 47.0296C24.0514 46.9525 21.9812 47.8825 19.969 48.7988C16.6846 44.4474 14.7334 39.0342 14.7334 33.162C14.7334 32.8591 14.7404 32.5581 14.7507 32.2577C16.6071 32.5694 18.5747 32.7959 20.5938 32.947C20.6008 32.9487 20.6058 32.9538 20.613 32.9554L25.3568 34.0041C25.6784 34.0955 25.7528 34.3613 25.7699 34.4713C25.7868 34.5805 25.7969 34.8556 25.5193 35.041C25.2019 35.2525 25.0597 35.6479 25.1706 36.0135C25.2814 36.3791 25.6183 36.6287 26.0001 36.6287C31.4023 36.6287 36.5701 36.0515 40.9432 34.958C41.3258 34.8632 41.595 34.5222 41.6001 34.1277C41.6052 33.7341 41.3436 33.3871 40.9636 33.2822L39.199 32.7955L40.895 31.5235C40.9065 31.5148 40.9116 31.5017 40.9225 31.4926C41.8605 31.2584 42.7607 31.0046 43.6034 30.7279C44.0587 30.5781 44.3058 30.0889 44.1568 29.6344C44.007 29.1791 43.5179 28.9302 43.0633 29.0809C41.77 29.5058 40.3439 29.8816 38.823 30.1998C34.9689 31.0038 30.5348 31.4287 26.0001 31.4287C22.1275 31.4287 18.2992 31.1151 14.8661 30.5204C14.8662 30.5189 14.8663 30.5174 14.8665 30.5159C14.8087 31.0892 14.7765 31.6697 14.7564 32.2534C14.4041 32.1943 14.0487 32.1373 13.705 32.0719C13.2344 31.9822 12.9255 31.5285 13.0152 31.0587C13.1041 30.5881 13.5578 30.28 14.0284 30.369C14.2995 30.4207 14.5909 30.4574 14.8674 30.5054C16.1982 17.3939 27.2708 7.16203 40.7334 7.16203C41.7974 7.16203 42.8443 7.23342 43.8748 7.35768C40.819 4.46226 37.0628 2.29873 32.8858 1.15224C32.8773 1.14986 32.8687 1.14758 32.8602 1.14531C32.6739 1.09439 32.4867 1.04553 32.2988 0.998732C32.2762 0.993099 32.2535 0.987682 32.2309 0.982157C32.0554 0.938932 31.8792 0.897332 31.7023 0.857682C31.6668 0.849665 31.631 0.84219 31.5955 0.83439C31.4299 0.79799 31.264 0.76289 31.0973 0.729632C31.0492 0.720099 31.0008 0.711215 30.9527 0.701899C30.7971 0.671782 30.6412 0.642532 30.4845 0.615232C30.4241 0.604724 30.3632 0.59519 30.3026 0.585115C30.1567 0.56074 30.0106 0.536799 29.8639 0.514915C29.7914 0.504082 29.7185 0.494657 29.6458 0.484365C29.5094 0.46519 29.3731 0.446015 29.2361 0.429007C29.1514 0.418499 29.066 0.409615 28.9811 0.399865C28.8546 0.385349 28.7283 0.370507 28.6012 0.35794C28.5036 0.34819 28.4055 0.340499 28.3077 0.331832C28.1919 0.321649 28.0762 0.310707 27.9599 0.301932C27.8477 0.29359 27.7347 0.287415 27.622 0.280482C27.5188 0.27409 27.4158 0.266615 27.3122 0.261524C27.1774 0.254807 27.042 0.250799 26.9067 0.24614C26.824 0.243324 26.7417 0.239099 26.6588 0.23704C26.4398 0.231624 26.2203 0.228699 26.0001 0.228699C14.6235 0.228699 4.95512 7.53611 1.42854 17.7126C1.4787 17.5657 1.53027 17.4195 1.58357 17.2741C1.60264 17.2911 1.62669 17.2985 1.64456 17.3174C3.0309 18.7985 5.55388 20.1696 8.94016 21.2818C9.39549 21.4316 9.64259 21.9207 9.49364 22.3753C9.37349 22.7409 9.03495 22.972 8.67009 22.972C8.58039 22.972 8.48982 22.9584 8.40012 22.9289C5.17363 21.8696 2.63982 20.5551 0.997703 19.1001C1.12944 18.6373 1.26962 18.1782 1.42399 17.7256C0.502186 20.3901 6.10352e-05 23.2506 6.10352e-05 26.2287C6.10352e-05 26.445 0.00298603 26.6606 0.00829437 26.8758C0.0100277 26.9482 0.0136027 27.0203 0.0158777 27.0925C0.020536 27.2349 0.0251944 27.3772 0.0321277 27.5191C0.0363527 27.6052 0.0422027 27.6908 0.0472944 27.7767C0.0547694 27.9041 0.062136 28.0314 0.0714527 28.1582C0.0781694 28.2498 0.0862944 28.3409 0.093986 28.4322C0.104169 28.5527 0.114244 28.673 0.126053 28.793C0.135261 28.8874 0.145661 28.9814 0.155953 29.0756C0.168628 29.1916 0.181519 29.3075 0.195711 29.4231C0.207519 29.5194 0.220194 29.6154 0.233086 29.7113C0.248144 29.8236 0.263636 29.9358 0.280103 30.0477C0.294511 30.1454 0.309461 30.2429 0.324953 30.3402C0.342286 30.4495 0.360378 30.5585 0.379119 30.6673C0.396128 30.766 0.413353 30.8646 0.431444 30.9629C0.450944 31.069 0.471528 31.1748 0.492328 31.2805C0.512044 31.3805 0.531761 31.4804 0.552669 31.5799C0.574119 31.6826 0.596869 31.785 0.619619 31.8873C0.642153 31.9886 0.664361 32.09 0.688086 32.1908C0.711161 32.2891 0.735644 32.3869 0.759803 32.4847C0.785478 32.5888 0.810828 32.6931 0.837803 32.7966C0.861311 32.8869 0.886336 32.9765 0.910819 33.0663C0.940828 33.1764 0.970078 33.2868 1.00149 33.3964C1.02154 33.4663 1.04309 33.5357 1.06368 33.6053C1.20559 34.0856 1.36029 34.5603 1.52875 35.0284C1.53807 35.0543 1.54684 35.0805 1.55627 35.1064C1.60859 35.2504 1.66309 35.3934 1.7179 35.5362C1.73524 35.5814 1.75203 35.6271 1.76958 35.6721C1.82353 35.8104 1.87943 35.9477 1.93565 36.0848C1.95548 36.133 1.97476 36.1814 1.9948 36.2295C2.052 36.3666 2.11094 36.5028 2.17041 36.6387C2.19067 36.6849 2.2106 36.7314 2.23119 36.7777C2.29261 36.9157 2.35544 37.0529 2.41914 37.1898C2.43875 37.2318 2.45814 37.2738 2.47797 37.3158C2.54449 37.4565 2.6123 37.5965 2.6812 37.7359C2.69875 37.7713 2.7163 37.8068 2.73407 37.8421C2.80676 37.9875 2.88075 38.1321 2.95615 38.2759C2.9698 38.302 2.98367 38.328 2.99743 38.3541C3.07803 38.5065 3.15982 38.6583 3.24324 38.8089C3.25049 38.8219 3.25775 38.8348 3.26501 38.8478C6.07334 43.8944 10.5147 47.9066 15.8744 50.1745ZM18.4514 8.28003C18.7722 7.95926 19.3527 7.95926 19.682 8.28003C19.8462 8.44427 19.9333 8.67025 19.9333 8.89537C19.9333 9.12048 19.8461 9.3456 19.682 9.50225C19.517 9.66637 19.2918 9.76203 19.0667 9.76203C18.8416 9.76203 18.6156 9.66637 18.4514 9.5107C18.2949 9.3456 18.2001 9.12048 18.2001 8.89537C18.2001 8.67025 18.2949 8.44427 18.4514 8.28003ZM11.3572 11.7151C12.0284 10.6602 13.2273 10.2218 14.035 10.7357C14.8426 11.2497 14.9532 12.5214 14.282 13.5762C13.6107 14.6311 12.4119 15.0695 11.6042 14.5556C10.7965 14.0416 10.686 12.7699 11.3572 11.7151ZM6.02719 30.0006C5.81247 29.0072 6.25501 28.0686 7.01562 27.9042C7.77623 27.7397 8.56695 28.4118 8.78167 29.4052C8.99639 30.3987 8.55384 31.3373 7.79324 31.5017C7.03263 31.6661 6.2419 30.994 6.02719 30.0006Z" fill="#DB3F3D"/>
<path id="Vector_32" d="M29.4812 23.6287C27.7174 23.5787 26.6552 24.161 25.687 24.6561C24.6054 25.2079 23.6735 25.6828 21.809 25.3738C21.335 25.2901 20.8899 25.6142 20.812 26.0864C20.7332 26.5579 21.0524 27.0048 21.5246 27.0834C22.0325 27.168 22.492 27.2053 22.9135 27.2053C24.5054 27.2053 25.5397 26.6772 26.4749 26.1998C27.3551 25.7505 28.1177 25.3611 29.3559 25.3611C29.3932 25.3611 29.4389 25.3636 29.4668 25.362C29.939 25.362 30.3259 24.9828 30.3334 24.5097C30.341 24.0307 29.9594 23.6363 29.4812 23.6287Z" fill="#DB3F3D"/>
<path id="Vector_33" d="M36.0691 22.9474C35.6917 22.6503 35.1474 22.7172 34.8521 23.093C34.6718 23.3223 33.7163 23.583 32.8852 23.6304C32.4078 23.6566 32.0422 24.0655 32.0684 24.5428C32.0938 25.005 32.4756 25.3621 32.9326 25.3621C32.9486 25.3621 32.9639 25.3621 32.9801 25.3613C33.542 25.3308 35.4371 25.1548 36.2148 24.1645C36.5109 23.7878 36.4449 23.2427 36.0691 22.9474Z" fill="#DB3F3D"/>
<path id="Vector_34" d="M11.3563 11.7152C10.6851 12.77 10.7956 14.0418 11.6033 14.5558C12.411 15.0698 13.6099 14.6313 14.2812 13.5764C14.9524 12.5216 14.8419 11.2498 14.0342 10.7358C13.2265 10.2218 12.0276 10.6603 11.3563 11.7152Z" fill="#A03939"/>
<path id="Vector_35" d="M7.79346 31.5007C8.55404 31.3363 8.99651 30.3977 8.78176 29.4043C8.567 28.4109 7.77634 27.7389 7.01577 27.9034C6.25519 28.0678 5.81272 29.0064 6.02747 29.9997C6.24223 30.9931 7.03289 31.6651 7.79346 31.5007Z" fill="#A03939"/>
<path id="Vector_36" d="M19.0667 9.76204C19.2918 9.76204 19.517 9.66638 19.6821 9.50226C19.8462 9.34561 19.9334 9.12049 19.9334 8.89537C19.9334 8.67026 19.8462 8.44427 19.6821 8.28004C19.3528 7.95927 18.7723 7.95927 18.4515 8.28004C18.2948 8.44427 18.2001 8.67026 18.2001 8.89537C18.2001 9.12049 18.2949 9.34561 18.4514 9.51071C18.6156 9.66638 18.8416 9.76204 19.0667 9.76204Z" fill="#A03939"/>
<path id="Vector_37" d="M39.2514 20.4026C39.0949 20.5669 39.0001 20.7929 39.0001 21.018C39.0001 21.2431 39.0949 21.4682 39.2514 21.6333C39.4156 21.7891 39.6416 21.8846 39.8667 21.8846C40.0918 21.8846 40.317 21.789 40.4821 21.6249C40.6463 21.4683 40.7334 21.2432 40.7334 21.018C40.7334 20.7927 40.6462 20.5669 40.4821 20.4026C40.1527 20.0819 39.5722 20.0819 39.2514 20.4026Z" fill="#DB3F3D"/>
<path id="Vector_38" d="M42.7181 23.88C42.5615 24.0443 42.4667 24.2703 42.4667 24.4954C42.4667 24.7205 42.5615 24.9456 42.7181 25.1107C42.8823 25.2665 43.1083 25.362 43.3334 25.362C43.5585 25.362 43.7836 25.2664 43.9487 25.1023C44.113 24.9457 44.2001 24.7206 44.2001 24.4954C44.2001 24.2702 44.1129 24.0443 43.9487 23.88C43.6194 23.5593 43.0388 23.5593 42.7181 23.88Z" fill="#DB3F3D"/>
<path id="Vector_39" d="M21.0514 35.1467C20.8949 35.3109 20.8001 35.5369 20.8001 35.762C20.8001 35.9871 20.8949 36.2122 21.0514 36.3773C21.2156 36.5331 21.4416 36.6287 21.6667 36.6287C21.8918 36.6287 22.117 36.533 22.2821 36.3689C22.4463 36.2124 22.5334 35.9872 22.5334 35.762C22.5334 35.5368 22.4462 35.3109 22.2821 35.1467C21.9528 34.8259 21.3722 34.8259 21.0514 35.1467Z" fill="#DB3F3D"/>
<path id="Vector_40" d="M32.3181 39.48C32.1615 39.6443 32.0667 39.8702 32.0667 40.0954C32.0667 40.3205 32.1615 40.5456 32.3181 40.7107C32.4823 40.8665 32.7083 40.962 32.9334 40.962C33.1585 40.962 33.3836 40.8664 33.5487 40.7022C33.713 40.5457 33.8001 40.3206 33.8001 40.0954C33.8001 39.8701 33.7129 39.6443 33.5487 39.48C33.2194 39.1593 32.6388 39.1593 32.3181 39.48Z" fill="#DB3F3D"/>
<path id="Vector_41" d="M13.0154 31.0589C12.9257 31.5286 13.2345 31.9822 13.7051 32.072C14.0489 32.1374 14.4042 32.1944 14.7565 32.2536C14.7765 31.6699 14.8087 31.0893 14.8667 30.516C14.867 30.5125 14.8672 30.5089 14.8676 30.5055C14.5912 30.4575 14.2997 30.4208 14.0286 30.3691C13.5578 30.2801 13.1042 30.5882 13.0154 31.0589Z" fill="#A03939"/>
<path id="Vector_42" d="M8.40014 22.9288C8.48984 22.9583 8.5804 22.9719 8.6701 22.9719C9.03486 22.9719 9.3734 22.7408 9.49365 22.3752C9.64261 21.9207 9.3955 21.4315 8.94018 21.2817C5.55389 20.1695 3.03092 18.7984 1.64458 17.3173C1.62681 17.2983 1.60265 17.291 1.58359 17.274C1.53029 17.4194 1.47872 17.5656 1.42856 17.7125C1.42704 17.7168 1.42553 17.7211 1.42401 17.7254C1.26964 18.178 1.12945 18.6372 0.997719 19.0999C2.63984 20.555 5.17364 21.8695 8.40014 22.9288Z" fill="#A03939"/>
<path id="Vector_43" d="M19.9745 48.7964C19.9507 48.8072 19.9267 48.818 19.9028 48.8289C18.4116 49.5076 16.8799 50.1984 15.8753 50.1737C16.0906 50.2648 16.3094 50.349 16.5276 50.4344C16.7267 50.5117 16.924 50.593 17.1255 50.6655C17.3092 50.7322 17.4961 50.7921 17.6818 50.8547C17.9701 50.951 18.2593 51.0448 18.5517 51.1319C18.634 51.1565 18.7168 51.18 18.7996 51.2038C19.3918 50.9652 20.0012 50.6887 20.6214 50.4064C20.7789 50.3346 20.9372 50.2628 21.0954 50.1909C21.0955 50.1908 21.0956 50.1908 21.0958 50.1907C21.0957 50.1906 21.0957 50.1906 21.0957 50.1906C20.7048 49.7405 20.3342 49.2728 19.9745 48.7964Z" fill="#A03939"/>
<path id="Vector_44" d="M46.6492 10.4363C44.6918 11.3081 42.3605 12.0657 39.6729 12.6802C39.2057 12.7868 38.9146 13.2514 39.0212 13.7178C39.1126 14.1198 39.4698 14.3915 39.865 14.3915C39.9294 14.3915 39.9937 14.3847 40.0588 14.3696C42.9996 13.6979 45.5559 12.8579 47.6795 11.8788C47.3524 11.3856 47.0083 10.9052 46.6492 10.4363Z" fill="#DB3F3D"/>
</g>
</svg>
