<svg width="31" height="31" viewBox="0 0 31 31" fill="none" xmlns="http://www.w3.org/2000/svg">
<g id="mercury">
<path id="Vector" d="M30.947 15.4854C30.947 24.031 24.0194 30.9586 15.4739 30.9586C6.92826 30.9586 0.000694275 24.031 0.000694275 15.4854C0.000694275 6.93982 6.92826 0.0122452 15.4739 0.0122452C24.0194 0.0122452 30.947 6.93982 30.947 15.4854Z" fill="#C3C9D1"/>
<path id="Vector_2" d="M25.0744 3.35479C25.0744 3.39641 25.0776 3.43761 25.0776 3.47923C25.0765 15.1533 16.5899 25.0951 5.0607 26.9291C11.3604 32.7032 21.148 32.2775 26.9221 25.9782C32.6964 19.6791 32.2705 9.8909 25.9714 4.1168C25.6822 3.85104 25.3829 3.59711 25.0744 3.35479Z" fill="#B7BDC4"/>
<path id="Vector_3" d="M8.06835 13.2854C7.18424 13.2854 6.46765 12.5688 6.46765 11.6847C6.46765 10.8006 7.18424 10.084 8.06835 10.084C8.95246 10.084 9.66905 10.8006 9.66905 11.6847C9.66905 12.5688 8.95246 13.2854 8.06835 13.2854ZM8.06835 11.1512C7.77386 11.1512 7.53471 11.3902 7.53471 11.6847C7.53471 11.9792 7.77386 12.2183 8.06835 12.2183C8.36284 12.2183 8.60199 11.9792 8.60199 11.6847C8.60199 11.3902 8.36284 11.1512 8.06835 11.1512Z" fill="#808B96"/>
<path id="Vector_4" d="M3.7999 12.752H4.86696V13.819H3.7999V12.752Z" fill="#808B96"/>
<path id="Vector_5" d="M11.2698 6.34914H12.3368V7.41641H11.2698V6.34914Z" fill="#808B96"/>
<path id="Vector_6" d="M18.206 10.6176H19.2731V11.6849H18.206V10.6176Z" fill="#808B96"/>
<path id="Vector_7" d="M12.3368 20.2216C11.1582 20.2216 10.2025 19.2661 10.2025 18.0875C10.2025 16.9089 11.1582 15.9531 12.3368 15.9531C13.5154 15.9531 14.471 16.9089 14.471 18.0875C14.471 19.2661 13.5154 20.2216 12.3368 20.2216ZM12.3368 17.0204C11.7472 17.0204 11.2698 17.4978 11.2698 18.0875C11.2698 18.6769 11.7472 19.1545 12.3368 19.1545C12.9264 19.1545 13.4039 18.6769 13.4039 18.0875C13.4039 17.4978 12.9258 17.0204 12.3368 17.0204Z" fill="#808B96"/>
<path id="Vector_8" d="M26.7429 21.2889H27.81V22.3559H26.7429V21.2889Z" fill="#808B96"/>
<path id="Vector_9" d="M24.0752 7.94986H25.1422V9.01693H24.0752V7.94986Z" fill="#808B96"/>
<path id="Vector_10" d="M19.8067 27.1579H20.8738V28.2251H19.8067V27.1579Z" fill="#808B96"/>
<path id="Vector_11" d="M7.53472 24.4901H8.60199V25.5573H7.53472V24.4901Z" fill="#808B96"/>
<path id="Vector_12" d="M20.3401 19.1546H21.4074V20.2218H20.3401V19.1546Z" fill="#808B96"/>
<path id="Vector_13" d="M0.712793 14.9982C2.37412 12.5882 4.40495 10.4545 6.73005 8.67612C8.36709 7.42442 9.86596 6.00139 11.2003 4.43111L12.7642 2.59211C12.9888 2.32846 13.2178 2.06925 13.4514 1.81362C14.0977 1.12049 14.8333 0.516501 15.639 0.0177214C15.5323 0.0177214 15.432 0.0118061 15.3274 0.0122286C14.7826 0.0177214 14.239 0.0517339 13.698 0.114266C13.3329 0.417844 12.9884 0.744871 12.6655 1.09281C12.4226 1.35731 12.1847 1.62687 11.9521 1.90045L10.3871 3.7403C9.10184 5.25184 7.65853 6.62249 6.08297 7.82877C3.77434 9.59594 1.74521 11.7009 0.0644425 14.0725C0.0179658 14.5875 -0.00337125 15.107 0.000431392 15.6316C0.000431392 15.748 0.00888168 15.8631 0.0126843 15.9789L0.433721 15.4011L0.712793 14.9982Z" fill="#808B96"/>
<path id="Vector_14" d="M20.4891 24.5184C22.1261 23.2663 23.6243 21.8426 24.9597 20.2729L26.5237 18.4331C27.3837 17.4227 28.3143 16.4739 29.3087 15.5951L30.8891 14.1972C30.8551 13.7795 30.808 13.3655 30.7414 12.9577L30.2494 13.3399L28.5991 14.7955C27.5666 15.7083 26.601 16.6928 25.7078 17.7423L24.1462 19.5819C22.8602 21.0941 21.4169 22.4643 19.8409 23.6706C17.426 25.5162 15.3173 27.731 13.5923 30.2333L13.1975 30.7883C13.5993 30.8475 14.0068 30.888 14.4177 30.9159L14.4712 30.839C16.1325 28.4294 18.1637 26.2961 20.4891 24.5184Z" fill="#808B96"/>
<path id="Vector_15" d="M19.8813 17.7182C23.2988 15.5264 26.2338 12.6622 28.5095 9.29979L29.1813 8.30899C28.9935 7.95049 28.7928 7.60043 28.5798 7.25841L28.3821 7.58755L27.6264 8.70045C25.4315 11.9431 22.5998 14.7046 19.3035 16.818C15.9132 18.994 12.9968 21.8314 10.7288 25.1608L8.06099 29.0666C8.37471 29.2383 8.69476 29.3985 9.02137 29.5468L11.6074 25.7585C13.796 22.5491 16.61 19.8145 19.8813 17.7182Z" fill="#808B96"/>
<path id="Vector_16" d="M7.27233 18.1162C10.1807 16.1857 12.6526 13.668 14.5286 10.7239C16.323 7.90506 18.6883 5.49334 21.4718 3.64463L23.1407 2.53362L23.5772 2.30483C23.2214 2.08554 22.8564 1.88062 22.4825 1.69007L20.8818 2.75734C17.9738 4.68718 15.5023 7.20495 13.627 10.1486C11.8315 12.9681 9.46519 15.3796 6.6806 17.2285C4.71062 18.5421 2.93711 20.1282 1.41331 21.9402C1.57344 22.2888 1.74245 22.634 1.92772 22.9652L1.9987 22.8883C3.51025 21.0455 5.28735 19.4368 7.27233 18.1162Z" fill="#808B96"/>
</g>
</svg>
