<svg width="799" height="221" viewBox="0 0 799 221" fill="none" xmlns="http://www.w3.org/2000/svg">
<g id="solas-system">
<g id="sun">
<path id="sun-shine" d="M689.299 217.283L703.667 220.057C705.934 220.494 708.282 220.091 710.272 218.921L722.549 211.708C723.555 211.118 724.662 210.717 725.813 210.527L739.767 208.227C742.032 207.854 744.085 206.671 745.546 204.9L754.971 193.466C755.754 192.516 756.715 191.726 757.8 191.144L769.869 184.657C771.915 183.557 773.487 181.746 774.286 179.565L779.433 165.528C779.815 164.485 780.378 163.518 781.095 162.67L790.435 151.617C791.882 149.904 792.676 147.734 792.676 145.491V130.838C792.676 129.703 792.88 128.577 793.278 127.513L798.399 113.825C799.201 111.681 799.201 109.319 798.399 107.175L793.278 93.4871C792.88 92.4235 792.676 91.2976 792.676 90.1619V75.5088C792.676 73.2665 791.882 71.0963 790.435 69.3835L781.095 58.3305C780.378 57.4822 779.815 56.5148 779.433 55.4722L774.286 41.4351C773.486 39.2545 771.915 37.4429 769.869 36.343L757.8 29.856C756.715 29.2727 755.754 28.4839 754.97 27.5336L745.546 16.1004C744.086 14.3286 742.032 13.1468 739.767 12.773L725.813 10.473C724.661 10.2832 723.555 9.88296 722.549 9.29161L710.272 2.07898C708.282 0.909705 705.933 0.50592 703.667 0.943279L689.299 3.71695C688.111 3.94615 686.89 3.94615 685.702 3.71695L671.334 0.943279C669.067 0.50592 666.718 0.909257 664.728 2.07898L652.451 9.29161C651.445 9.88251 650.339 10.2832 649.187 10.473L635.233 12.773C632.968 13.1464 630.915 14.3286 629.454 16.1004L620.03 27.534C619.246 28.4844 618.285 29.2736 617.2 29.8565L605.131 36.3434C603.085 37.4429 601.514 39.2545 600.714 41.4355L595.567 55.4726C595.185 56.5152 594.622 57.4826 593.905 58.3309L584.565 69.384C583.118 71.0967 582.324 73.2669 582.324 75.5093V90.1624C582.324 91.2976 582.12 92.4239 581.722 93.4875L576.602 107.175C575.799 109.319 575.799 111.681 576.602 113.825L581.722 127.513C582.12 128.577 582.324 129.702 582.324 130.838V145.491C582.324 147.734 583.118 149.904 584.565 151.617L593.906 162.67C594.622 163.518 595.185 164.485 595.567 165.528L600.715 179.565C601.514 181.746 603.086 183.557 605.132 184.657L617.2 191.144C618.286 191.727 619.247 192.516 620.03 193.466L629.455 204.9C630.915 206.672 632.969 207.854 635.234 208.227L649.188 210.528C650.339 210.717 651.446 211.118 652.452 211.709L664.729 218.921C666.719 220.091 669.068 220.495 671.334 220.057L685.702 217.284C686.89 217.054 688.11 217.054 689.299 217.283V217.283Z" fill="#FEE97D"/>
<g id="Group">
<path id="Vector" d="M687.725 201.561C738.016 201.561 778.786 160.792 778.786 110.5C778.786 60.2085 738.016 19.4391 687.725 19.4391C637.433 19.4391 596.663 60.2085 596.663 110.5C596.663 160.792 637.433 201.561 687.725 201.561Z" fill="#FECA9C"/>
<path id="Vector_2" d="M648.122 110.5C648.122 69.1449 675.701 34.2305 713.462 23.1277C705.303 20.7283 696.66 19.4391 687.724 19.4391C637.432 19.4391 596.662 60.2084 596.662 110.5C596.662 160.792 637.432 201.561 687.724 201.561C696.66 201.561 705.307 200.271 713.467 197.872C675.706 186.769 648.122 151.855 648.122 110.5V110.5Z" fill="#FDB97E"/>
<path id="Vector_3" d="M687.724 188.132C730.599 188.132 765.356 153.375 765.356 110.5C765.356 67.6255 730.599 32.8687 687.724 32.8687C644.849 32.8687 610.093 67.6255 610.093 110.5C610.093 153.375 644.849 188.132 687.724 188.132Z" fill="#FEA95C"/>
<path id="Vector_4" d="M691.432 32.9591C690.203 32.901 688.967 32.8687 687.724 32.8687C644.917 32.8687 610.092 67.6941 610.092 110.5C610.092 153.306 644.917 188.132 687.724 188.132C688.967 188.132 690.203 188.1 691.432 188.041C665.445 172.006 648.122 143.279 648.122 110.5C648.122 77.7216 665.445 48.9942 691.432 32.9591V32.9591Z" fill="#FE9738"/>
<path id="Vector_5" d="M673.43 78.6675C681.455 78.6675 687.96 72.9755 687.96 65.954C687.96 58.9326 681.455 53.2406 673.43 53.2406C665.406 53.2406 658.901 58.9326 658.901 65.954C658.901 72.9755 665.406 78.6675 673.43 78.6675Z" fill="#FE860A"/>
<path id="Vector_6" d="M653.705 108.103C658.641 108.103 662.641 104.602 662.641 100.284C662.641 95.9661 658.641 92.4655 653.705 92.4655C648.77 92.4655 644.769 95.9661 644.769 100.284C644.769 104.602 648.77 108.103 653.705 108.103Z" fill="#FE860A"/>
<path id="Vector_7" d="M709.442 170.512C716.913 170.512 722.97 165.212 722.97 158.674C722.97 152.137 716.913 146.837 709.442 146.837C701.971 146.837 695.914 152.137 695.914 158.674C695.914 165.212 701.971 170.512 709.442 170.512Z" fill="#FE9738"/>
</g>
</g>
<g id="earth">
<path id="Vector_8" d="M346.5 134C359.479 134 370 123.479 370 110.5C370 97.5213 359.479 87 346.5 87C333.521 87 323 97.5213 323 110.5C323 123.479 333.521 134 346.5 134Z" fill="#285680"/>
<g id="Group_2">
<path id="Vector_9" d="M346.5 87C343.234 87 340.126 87.6669 337.3 88.8703C337.171 89.6393 336.529 90.9529 336.548 91.3718C336.639 91.3896 342.523 85.3753 341.793 89.4351C341.322 92.0484 336.512 92.0331 336.719 94.6642C341.772 96.6455 343.535 90.9026 347.827 90.9261C349.259 90.9342 352.926 88.6701 353.625 89.1312C356.458 90.9974 352.978 97.6131 350.81 95.4114C348.726 93.3272 345.752 96.1415 345.886 99.3918C346.969 99.4404 347.432 96.3157 348.406 97.3578C349.479 98.5061 349.091 100.818 347.607 101.349C346.113 101.883 340.251 97.3862 341.691 100.795C343.275 104.577 336.948 107.5 343.335 105.975C346.346 105.253 345.345 107.545 346.766 108.638C348.458 109.937 347.709 106.844 348.942 107.315C350.737 108.009 348.634 109.798 351.445 108.499C354.742 106.995 353.503 109.34 354.513 110.874C356.406 113.736 361.058 116.483 363.496 112.7C364.071 111.808 363.702 104.753 367.321 109.485C369.619 112.492 368.831 105.934 369.142 104.211C366.392 94.2874 357.299 87 346.5 87Z" fill="#24AE5F"/>
</g>
<path id="Vector_10" d="M349.676 121.101L345.342 117.853L342.437 117.967L339.423 117.019L337.064 115.393L331.714 116.629L329.507 117.697L327.052 121.005L327.92 124.881C328.168 125.201 328.425 125.515 328.689 125.822L333.234 127.943L336.301 128.358L338.126 132.103L338.181 132.48C340.768 133.459 343.571 134 346.5 134C348.521 134 350.482 133.745 352.354 133.264L352.971 129.582L355.774 127.307L356.938 123.676L351.086 123.652L349.676 121.101Z" fill="#FAC176"/>
<path id="Vector_11" d="M323.304 114.266C323.416 114.256 323.43 114.246 323.44 114.237C324.491 113.186 325.366 113.01 326.242 111.434C327.118 109.858 326.067 109.858 326.242 107.231C326.417 104.604 326.067 105.83 326.242 103.028C326.305 102.02 326.199 101.465 324.974 101.069C323.707 103.957 323 107.145 323 110.5C323 111.782 323.106 113.039 323.304 114.266Z" fill="#88C057"/>
<path id="Vector_12" d="M347.31 129.948C346.433 129.881 343.191 128.868 342.448 127.517C341.705 126.166 340.085 123.871 340.017 124.276C339.971 124.551 332.634 122.053 327.594 120.274L327.052 121.005L327.92 124.881C328.168 125.201 328.425 125.515 328.689 125.822L333.234 127.943L336.301 128.358L338.126 132.103L338.181 132.48C340.768 133.46 343.571 134 346.5 134C348.521 134 350.482 133.745 352.354 133.264L352.822 130.473C352.409 130.344 351.933 130.174 351.362 129.948C349.134 129.071 348.188 130.016 347.31 129.948Z" fill="#FAC176"/>
<path id="Vector_13" d="M355.774 127.307L356.938 123.676L351.086 123.652L349.675 121.101L345.341 117.853L342.436 117.967L339.422 117.019L337.064 115.393L331.713 116.629L329.507 117.697L327.594 120.274C332.634 122.053 339.971 124.551 340.017 124.276C340.084 123.871 341.705 126.166 342.448 127.517C343.191 128.868 346.433 129.881 347.31 129.948C348.188 130.016 349.134 129.071 351.362 129.948C351.933 130.174 352.409 130.344 352.821 130.473L352.971 129.582L355.774 127.307Z" fill="#88C057"/>
<path id="Vector_14" d="M355.353 88.7447C355.196 91.7105 355.08 93.8539 355.08 93.8539L350.552 98.3821C350.552 98.3821 354.796 104.466 355.08 105.174C355.363 105.881 358.9 106.73 359.608 106.306C360.316 105.881 363.004 103.617 364.136 105.174C364.924 106.257 364.823 107.203 365.307 107.868C365.641 107.873 366.058 108.097 366.579 108.622C367.315 108.842 368.153 109.058 368.9 109.239C369.148 107.789 368.964 105.201 369.143 104.211C367.19 97.169 362.036 91.4699 355.353 88.7447Z" fill="#88C057"/>
<path id="Vector_15" d="M358.112 90.0842C357.965 92.8831 357.845 95.1034 357.845 95.1034L354.603 98.3448C354.603 98.3448 357.642 102.7 357.845 103.207C358.047 103.713 360.58 104.321 361.086 104.017C361.593 103.713 363.517 102.093 364.328 103.207C365.138 104.321 364.631 105.233 365.948 105.638C367.061 105.981 368.596 106.32 369.048 106.417C369.054 105.516 369.057 104.683 369.142 104.211C367.468 98.1722 363.439 93.1222 358.112 90.0842Z" fill="#FAC176"/>
</g>
<g id="jupiter">
<path id="saturn-body" d="M148 146.913C168.387 146.913 184.913 130.387 184.913 110C184.913 89.6136 168.387 73.0871 148 73.0871C127.614 73.0871 111.087 89.6136 111.087 110C111.087 130.387 127.614 146.913 148 146.913Z" fill="url(#paint0_linear)"/>
<g id="Group_3">
<path id="Vector_16" d="M121.863 102.886C123.086 102.527 124.315 102.14 125.549 101.726C127.55 101.054 128.613 98.871 127.915 96.8787L127.914 96.8774C127.229 94.923 125.1 93.8758 123.137 94.536C121.997 94.9194 120.862 95.2773 119.735 95.6088C118.005 96.1175 116.87 97.7692 117.022 99.5661C117.224 101.954 119.564 103.561 121.863 102.886V102.886Z" fill="url(#paint1_linear)"/>
<path id="Vector_17" d="M148 73.0871C146.862 73.0871 145.737 73.1414 144.626 73.2422C144.626 73.2456 144.626 73.2399 144.626 73.2432C149.592 73.6092 151.216 80.0256 147.123 82.7813C144.555 84.5099 141.802 86.1624 138.901 87.7126C137.021 88.7171 136.255 91.0847 137.208 92.991C138.124 94.8223 140.352 95.5314 142.16 94.5715C149.02 90.9309 155.169 86.7282 160.186 82.2592C161.712 80.9001 164.006 80.8681 165.545 82.2122C165.57 82.2344 165.596 82.2567 165.621 82.279C167.379 83.8275 167.503 86.4577 165.883 88.1495C165.355 88.7008 164.86 89.205 164.514 89.5313C161.08 92.7752 156.942 95.9003 152.297 98.7717C150.776 99.7121 150.05 101.577 150.643 103.264C151.469 105.619 154.2 106.511 156.239 105.251C161.421 102.048 166.054 98.5341 169.911 94.8668C171.66 93.2043 174.529 93.8319 175.441 96.0659C175.451 96.0887 175.46 96.1113 175.469 96.134C175.967 97.3605 175.712 98.7643 174.816 99.7385C173.773 100.872 172.435 102.291 171.744 102.94C165.746 108.582 157.625 113.861 148.408 118.065C146.665 118.859 144.92 119.599 143.179 120.281C141.27 121.03 140.213 123.137 140.877 125.076C141.579 127.124 143.84 128.168 145.847 127.384C147.751 126.641 149.657 125.835 151.557 124.968C162.079 120.169 171.352 114 178.071 107.375C178.132 108.242 178.164 109.117 178.164 110C178.164 110.868 178.133 111.728 178.074 112.581C172.846 117.919 165.665 123.006 157.439 127.157C147.834 132.002 138.045 134.948 129.818 135.471C129.685 135.479 129.552 135.487 129.419 135.494C125.912 135.686 122.891 135.397 120.56 134.689C123.617 138.085 127.296 140.909 131.417 142.985C134.008 142.764 136.713 142.345 139.496 141.735C146.366 140.229 153.696 137.577 160.871 133.956C160.921 133.931 160.972 133.905 161.022 133.88C164.244 132.247 167.056 136.635 164.231 138.886C158.751 143.251 152.002 146.089 144.625 146.758C145.737 146.859 146.862 146.913 148 146.913C168.386 146.913 184.913 130.387 184.913 110C184.913 89.6136 168.387 73.0871 148 73.0871V73.0871Z" fill="url(#paint2_linear)"/>
</g>
<path id="Vector_18" d="M189.656 88.9807C186.821 83.3604 180.004 80.4246 170.375 80.6387C173.525 83.0433 176.277 85.9437 178.515 89.2235C180.646 89.9335 182.152 91.0144 182.857 92.4106C183.562 93.8051 183.537 95.655 182.845 97.7881C182.069 100.176 180.459 102.918 178.097 105.776C178.012 105.877 177.928 105.978 177.842 106.08C172.534 112.39 164.348 118.514 154.742 123.362C145.137 128.207 135.348 131.153 127.121 131.675C126.987 131.684 126.854 131.692 126.721 131.699C123.023 131.901 119.863 131.569 117.485 130.775C115.354 130.065 113.848 128.984 113.143 127.588C112.438 126.193 112.464 124.345 113.155 122.212C111.873 118.553 111.152 114.631 111.093 110.548C105.196 118.167 103.506 125.397 106.344 131.019C109.083 136.449 115.538 139.373 124.652 139.373C124.972 139.373 125.296 139.37 125.625 139.361C126.121 139.351 126.625 139.331 127.136 139.304C130.2 139.137 133.444 138.675 136.798 137.94C143.668 136.434 150.998 133.782 158.173 130.161C165.347 126.541 171.835 122.22 177.129 117.59C179.714 115.329 182.014 112.993 183.968 110.627C184.294 110.234 184.607 109.843 184.907 109.452C188.936 104.248 191 99.2265 191 94.7731C191 92.7057 190.555 90.7631 189.656 88.9807V88.9807Z" fill="url(#paint3_linear)"/>
<path id="Vector_19" d="M191 94.7731C191 99.2265 188.936 104.248 184.907 109.452C184.607 109.843 184.294 110.234 183.968 110.627C182.014 112.993 179.714 115.329 177.129 117.59C171.835 122.22 165.347 126.541 158.173 130.161C150.998 133.782 143.668 136.434 136.798 137.94C133.444 138.675 130.2 139.137 127.136 139.304C126.625 139.331 126.121 139.351 125.625 139.361C125.296 139.37 124.972 139.373 124.652 139.373C123.52 139.373 122.429 139.328 121.381 139.238C122.554 139.151 123.753 139.022 124.974 138.852C126.63 138.623 128.326 138.318 130.05 137.94C136.92 136.434 144.25 133.782 151.425 130.161C158.598 126.541 165.087 122.22 170.38 117.59C172.965 115.329 175.265 112.993 177.22 110.627C180.324 106.87 182.419 103.193 183.467 99.7374C183.988 98.0225 184.251 96.3615 184.251 94.7731C184.251 92.7057 183.806 90.7631 182.908 88.9807C180.876 84.9522 176.795 82.3031 171.099 81.2053C170.861 81.0131 170.62 80.8242 170.375 80.6387C180.004 80.4246 186.821 83.3604 189.656 88.9807C190.555 90.7631 191 92.7057 191 94.7731V94.7731Z" fill="url(#paint4_linear)"/>
<path id="Vector_20" d="M117.484 130.775C115.352 130.065 113.846 128.984 113.143 127.588C112.438 126.193 112.464 124.345 113.155 122.212C112.55 120.485 112.071 118.703 111.728 116.87C111.342 114.817 111.124 112.705 111.093 110.548C109.587 112.494 108.357 114.414 107.405 116.288C107.574 117.268 107.781 118.234 108.025 119.185C108.481 120.958 108.578 122.796 108.433 124.621C108.342 125.749 108.502 126.751 108.924 127.588C110.084 129.884 113.406 131.325 118.116 131.674C119.504 131.778 121.01 131.787 122.617 131.694C122.617 131.692 122.617 131.692 122.617 131.692C120.655 131.567 118.925 131.256 117.484 130.775V130.775Z" fill="url(#paint5_linear)"/>
</g>
<g id="venus">
<g id="Group_4">
<path id="Vector_21" d="M477.991 111.774C477.996 111.517 478 111.259 478 111C478 103.579 475.939 96.4746 472.092 90.3384L468.707 88.4531L468.739 85.7681C468.053 84.9625 467.334 84.1791 466.577 83.4227C459.211 76.0568 449.417 72 439 72C428.583 72 418.789 76.0568 411.423 83.4227C409.741 85.1046 408.234 86.9141 406.906 88.8276L407.16 91.1953L404.177 93.3979C402.939 95.8412 401.967 98.4094 401.273 101.066L403.504 104.602L400.366 105.636C400.125 107.399 400 109.19 400 111C400 117.812 401.735 124.357 404.996 130.132L408.379 131.262L408.024 134.702C409.064 136.055 410.196 137.35 411.423 138.577C418.789 145.943 428.583 150 439 150C449.417 150 459.211 145.943 466.577 138.577C470.367 134.787 473.279 130.353 475.215 125.523L475.715 122.121L476.723 120.953C477.118 119.443 477.424 117.905 477.636 116.345L477.238 114.199L477.991 111.774Z" fill="#FF936B"/>
<g id="Group_5">
<path id="Vector_22" d="M478 111C478 103.579 475.939 96.4746 472.092 90.3384L468.707 88.4531L468.739 85.7681C468.053 84.9625 467.334 84.1791 466.577 83.4227C459.211 76.0568 449.417 72 439 72V150C449.417 150 459.211 145.943 466.577 138.577C470.367 134.787 473.279 130.353 475.215 125.523L475.715 122.121L476.723 120.953C477.118 119.443 477.424 117.905 477.636 116.345L477.238 114.199L477.991 111.774C477.996 111.517 478 111.259 478 111Z" fill="#FF7037"/>
</g>
<path id="Vector_23" d="M449.117 130.039C447.607 133.812 444.005 136.251 439.941 136.251H434.411C433.149 136.251 432.125 137.274 432.125 138.536C432.125 139.798 433.149 140.821 434.411 140.821H439.941C445.885 140.821 451.152 137.255 453.36 131.736C454.869 127.962 458.471 125.523 462.536 125.523H475.215C475.811 124.035 476.315 122.509 476.723 120.953H462.536C456.592 120.953 451.324 124.519 449.117 130.039V130.039Z" fill="#FFC178"/>
<g id="Group_6">
<path id="Vector_24" d="M462.536 120.953C456.592 120.953 451.324 124.519 449.117 130.039C447.607 133.812 444.005 136.251 439.941 136.251H439V140.821H439.941C445.885 140.821 451.152 137.255 453.36 131.736C454.869 127.962 458.471 125.523 462.536 125.523H475.215C475.811 124.035 476.315 122.509 476.723 120.953H462.536Z" fill="#FF936B"/>
</g>
<path id="Vector_25" d="M451.365 94.2146C450.304 97.3975 447.337 99.5361 443.982 99.5361H442.809C441.547 99.5361 440.523 100.559 440.523 101.821C440.523 103.083 441.547 104.106 442.809 104.106H443.982C449.307 104.106 454.017 100.712 455.701 95.6601C456.762 92.477 459.729 90.3384 463.084 90.3384H472.092C471.093 88.7458 469.974 87.2188 468.739 85.7681H463.084C457.759 85.7681 453.049 89.1624 451.365 94.2146V94.2146Z" fill="#FF936B"/>
<path id="Vector_26" d="M433.976 128.391C435.942 125.637 439.136 123.994 442.52 123.994H443.59C444.852 123.994 445.875 122.971 445.875 121.709C445.875 120.447 444.852 119.423 443.59 119.423H442.52C437.664 119.423 433.079 121.783 430.257 125.735C428.29 128.488 425.095 130.132 421.712 130.132H404.996C405.891 131.717 406.903 133.243 408.024 134.702H421.712C426.568 134.702 431.153 132.343 433.976 128.391Z" fill="#FFC178"/>
<g id="Group_7">
<path id="Vector_27" d="M443.589 119.423H442.52C441.323 119.423 440.142 119.568 439 119.843V124.605C440.117 124.206 441.306 123.994 442.52 123.994H443.589C444.851 123.994 445.875 122.971 445.875 121.709C445.875 120.447 444.851 119.423 443.589 119.423V119.423Z" fill="#FF936B"/>
</g>
<path id="Vector_28" d="M450.323 111.774C445.205 111.774 440.161 110.044 436.121 106.902C431.283 103.138 425.242 101.066 419.113 101.066H401.272C400.881 102.563 400.578 104.089 400.366 105.636H419.113C424.231 105.636 429.275 107.367 433.315 110.509C438.153 114.272 444.194 116.345 450.323 116.345H477.636C477.841 114.84 477.961 113.315 477.991 111.774H450.323Z" fill="#FFC178"/>
<g id="Group_8">
<path id="Vector_29" d="M450.323 111.774C446.36 111.774 442.442 110.736 439 108.809V113.916C442.546 115.501 446.416 116.345 450.323 116.345H477.636C477.841 114.84 477.961 113.315 477.991 111.774H450.323Z" fill="#FF936B"/>
</g>
<path id="Vector_30" d="M431.592 89.0439C434.141 86.9192 437.373 85.749 440.692 85.749H443.896C445.158 85.749 446.182 84.7259 446.182 83.4639C446.182 82.2019 445.158 81.1787 443.896 81.1787H440.692C436.306 81.1787 432.035 82.725 428.666 85.5328C426.116 87.6574 422.884 88.8276 419.565 88.8276H406.906C405.889 90.2928 404.977 91.819 404.177 93.3979H419.565C423.951 93.3979 428.222 91.8516 431.592 89.0439Z" fill="#FFC178"/>
<g id="Group_9">
<path id="Vector_31" d="M443.897 81.1787H440.692C440.125 81.1787 439.561 81.2051 439 81.2559V85.8532C439.56 85.7859 440.124 85.749 440.692 85.749H443.897C445.159 85.749 446.182 84.7259 446.182 83.4639C446.182 82.2019 445.159 81.1787 443.897 81.1787Z" fill="#FF936B"/>
</g>
<g id="Group_10">
<path id="Vector_32" d="M442.047 94.2422C443.309 94.2422 444.332 93.2191 444.332 91.957C444.332 90.695 443.309 89.6719 442.047 89.6719C440.785 89.6719 439.762 90.695 439.762 91.957C439.762 93.2191 440.785 94.2422 442.047 94.2422Z" fill="#FF936B"/>
<path id="Vector_33" d="M442.047 94.2422C443.309 94.2422 444.332 93.2191 444.332 91.957C444.332 90.695 443.309 89.6719 442.047 89.6719C440.785 89.6719 439.762 90.695 439.762 91.957C439.762 93.2191 440.785 94.2422 442.047 94.2422Z" fill="#FF936B"/>
<path id="Vector_34" d="M463.375 104.145C464.637 104.145 465.66 103.121 465.66 101.859C465.66 100.597 464.637 99.5742 463.375 99.5742C462.113 99.5742 461.09 100.597 461.09 101.859C461.09 103.121 462.113 104.145 463.375 104.145Z" fill="#FF936B"/>
</g>
</g>
<path id="Vector_35" d="M420.719 123.949C426.188 123.949 430.621 120.88 430.621 117.094C430.621 113.308 426.188 110.238 420.719 110.238C415.25 110.238 410.816 113.308 410.816 117.094C410.816 120.88 415.25 123.949 420.719 123.949Z" fill="#FFC178"/>
</g>
<g id="uranus">
<g id="uranus-small-two">
<path id="Vector_36" d="M10.9283 97.3341C14.1814 97.3341 16.8186 94.697 16.8186 91.4439C16.8186 88.1908 14.1814 85.5537 10.9283 85.5537C7.67526 85.5537 5.03812 88.1908 5.03812 91.4439C5.03812 94.697 7.67526 97.3341 10.9283 97.3341Z" fill="url(#paint6_linear)"/>
<path id="Vector_37" d="M5.87894 94.4777C8.07787 91.3348 10.8107 88.5937 13.9468 86.3858C15.6666 87.4144 16.8186 89.2943 16.8186 91.4439C16.8186 94.6969 14.1814 97.3341 10.9283 97.3341C8.78493 97.3341 6.9094 96.1891 5.87894 94.4777V94.4777Z" fill="url(#paint7_linear)"/>
</g>
<g id="uranus-body">
<path id="Vector_38" d="M30 135.753C44.2232 135.753 55.7533 124.223 55.7533 110C55.7533 95.777 44.2232 84.2468 30 84.2468C15.7769 84.2468 4.2468 95.777 4.2468 110C4.2468 124.223 15.7769 135.753 30 135.753Z" fill="url(#paint8_linear)"/>
<g id="Group_11">
<path id="Vector_39" d="M11.7652 105.037C12.6182 104.786 13.4759 104.517 14.3364 104.228C15.7328 103.759 16.4743 102.236 15.987 100.846L15.9867 100.845C15.5087 99.4812 14.0235 98.7506 12.654 99.2112C11.8585 99.4787 11.0666 99.7283 10.28 99.9596C9.07305 100.315 8.28117 101.467 8.38728 102.721C8.52834 104.387 10.1609 105.508 11.7652 105.037V105.037Z" fill="url(#paint9_linear)"/>
<path id="Vector_40" d="M19.7818 115.702C19.7818 114.818 19.5802 113.98 19.2205 113.232C20.9047 113.222 22.267 111.854 22.267 110.168C22.267 108.475 20.8947 107.103 19.202 107.103C17.5093 107.103 16.1369 108.475 16.1369 110.168C16.1369 110.242 16.1404 110.315 16.1456 110.388C15.5049 110.139 14.8088 110 14.08 110C10.9308 110 8.37787 112.553 8.37787 115.703C8.37787 118.852 10.9308 121.405 14.08 121.405C17.229 121.404 19.7818 118.852 19.7818 115.702V115.702Z" fill="url(#paint10_linear)"/>
<path id="Vector_41" d="M23.2019 93.1328C24.8946 93.1328 26.2669 91.7606 26.2669 90.0678C26.2669 88.375 24.8946 87.0027 23.2019 87.0027C21.5091 87.0027 20.1368 88.375 20.1368 90.0678C20.1368 91.7606 21.5091 93.1328 23.2019 93.1328Z" fill="url(#paint11_linear)"/>
<path id="Vector_42" d="M30.0001 84.2472C29.2059 84.2472 28.4212 84.2849 27.6459 84.3554C31.1106 84.6107 32.2436 89.0872 29.3883 91.0107C27.5965 92.2166 25.6754 93.3695 23.6518 94.4507C22.3401 95.1519 21.806 96.8037 22.4707 98.1331C22.9165 99.0248 23.8071 99.5354 24.7342 99.5354C25.1354 99.5354 25.5448 99.4389 25.9259 99.2366C28.4307 97.9072 30.7989 96.4695 32.9895 94.9554C34.2589 94.0766 35.9906 94.3166 36.9848 95.4966C37.4624 96.0625 37.693 96.7495 37.693 97.4307C37.693 98.3637 37.2612 99.2872 36.4377 99.8778C35.3436 100.661 34.1953 101.426 32.9989 102.166C31.9365 102.822 31.4306 104.124 31.8436 105.301C32.4201 106.944 34.3259 107.566 35.7483 106.687C39.3636 104.452 42.5965 102 45.2871 99.4425C46.5071 98.2825 48.5094 98.7201 49.1459 100.279C49.1518 100.294 49.1588 100.311 49.1647 100.326C49.5118 101.181 49.3341 102.161 48.7094 102.84C47.9812 103.632 47.0483 104.621 46.5659 105.074C43.9471 107.538 40.7494 109.901 37.1459 112.044C36.5977 110.008 34.6765 108.535 32.4365 108.68C30.1165 108.832 28.2624 110.747 28.1812 113.071C28.1412 114.224 28.5307 115.286 29.2001 116.109C28.3459 116.482 27.4907 116.838 26.6365 117.173C25.3048 117.695 24.5683 119.165 25.0307 120.518C25.5201 121.947 27.0989 122.675 28.4977 122.128C29.8271 121.609 31.1565 121.047 32.4824 120.444C39.8236 117.095 46.293 112.791 50.98 108.168C51.0235 108.773 51.0447 109.385 51.0447 110C51.0447 110.606 51.0235 111.206 50.9824 111.8C47.3353 115.525 42.3247 119.074 36.5859 121.969C29.8848 125.349 23.0554 127.405 17.3154 127.769C17.2224 127.775 17.1295 127.781 17.0366 127.786C14.5907 127.92 12.4824 127.719 10.8566 127.225C12.9895 129.594 15.5554 131.565 18.4307 133.013C20.2389 132.859 22.126 132.566 24.0671 132.14C28.8601 131.089 33.9742 129.239 38.98 126.713C39.0153 126.695 39.0506 126.678 39.0859 126.66C41.333 125.521 43.2953 128.582 41.3247 130.153C37.5012 133.198 32.793 135.179 27.6459 135.645C28.4212 135.715 29.2059 135.753 30.0001 135.753C44.2236 135.753 55.7529 124.224 55.7529 110C55.7529 95.7766 44.2236 84.2472 30.0001 84.2472V84.2472ZM40.4565 95.6378C38.7636 95.6378 37.3918 94.266 37.3918 92.5731C37.3918 90.8801 38.7636 89.5084 40.4565 89.5084C42.1494 89.5084 43.5224 90.8801 43.5224 92.5731C43.5224 94.266 42.1494 95.6378 40.4565 95.6378ZM46.66 126.605C44.9671 126.605 43.5941 125.233 43.5941 123.54C43.5941 121.847 44.9671 120.474 46.66 120.474C48.353 120.474 49.7247 121.847 49.7247 123.54C49.7247 125.233 48.353 126.605 46.66 126.605Z" fill="url(#paint12_linear)"/>
</g>
<path id="Vector_43" d="M59.0624 95.3354C57.0847 91.4142 52.3282 89.366 45.6106 89.5154C47.8083 91.193 49.7283 93.2166 51.2894 95.5048C52.7765 96.0001 53.8271 96.7542 54.3188 97.7283C54.8106 98.7013 54.7929 99.9919 54.3106 101.48C53.7694 103.146 52.6459 105.059 50.9977 107.053C50.9388 107.124 50.88 107.194 50.82 107.265C47.1165 111.667 41.4059 115.94 34.7036 119.322C28.0024 122.702 21.173 124.758 15.433 125.122C15.3401 125.128 15.2471 125.134 15.1542 125.139C12.5742 125.28 10.3695 125.048 8.71068 124.494C7.22363 123.999 6.17304 123.245 5.68128 122.271C5.18951 121.298 5.20716 120.008 5.68951 118.52C4.7954 115.967 4.29187 113.231 4.25069 110.382C0.136582 115.698 -1.04224 120.742 0.937757 124.665C2.84834 128.453 7.35186 130.493 13.7107 130.493C13.9342 130.493 14.1601 130.491 14.3895 130.485C14.7354 130.478 15.0871 130.464 15.4436 130.445C17.5813 130.328 19.8448 130.006 22.1848 129.493C26.9777 128.442 32.0918 126.592 37.0977 124.066C42.1024 121.54 46.6294 118.526 50.3224 115.295C52.1259 113.718 53.7306 112.088 55.0941 110.438C55.3212 110.164 55.54 109.891 55.7494 109.618C58.56 105.987 60 102.484 60 99.3766C60 97.9342 59.6894 96.5789 59.0624 95.3354V95.3354Z" fill="url(#paint13_linear)"/>
<path id="Vector_44" d="M60 99.3766C60 102.484 58.56 105.987 55.7494 109.618C55.54 109.891 55.3212 110.164 55.0941 110.438C53.7306 112.088 52.1259 113.718 50.3224 115.295C46.6294 118.526 42.1024 121.54 37.0977 124.066C32.0918 126.592 26.9777 128.442 22.1848 129.493C19.8448 130.006 17.5812 130.328 15.4436 130.445C15.0871 130.464 14.7354 130.478 14.3895 130.485C14.1601 130.491 13.9342 130.493 13.7107 130.493C12.9213 130.493 12.1601 130.461 11.4283 130.399C12.2471 130.338 13.0836 130.248 13.9354 130.129C15.0907 129.969 16.2742 129.756 17.4765 129.493C22.2695 128.442 27.3836 126.592 32.3895 124.066C37.3941 121.54 41.9212 118.526 45.6141 115.295C47.4177 113.718 49.0224 112.088 50.3859 110.438C52.5518 107.817 54.0129 105.251 54.7447 102.84C55.1082 101.644 55.2918 100.485 55.2918 99.3766C55.2918 97.9342 54.9812 96.5789 54.3541 95.3354C52.9365 92.5248 50.0894 90.6766 46.1153 89.9107C45.9494 89.7766 45.7812 89.6448 45.6106 89.5154C52.3282 89.366 57.0847 91.4142 59.0623 95.3354C59.6894 96.5789 60 97.9342 60 99.3766V99.3766Z" fill="url(#paint14_linear)"/>
<path id="Vector_45" d="M8.70962 124.494C7.22256 123.999 6.17198 123.245 5.68139 122.271C5.18963 121.298 5.20727 120.008 5.68963 118.52C5.26751 117.315 4.93351 116.072 4.69398 114.793C4.42457 113.361 4.27257 111.888 4.25081 110.382C3.20022 111.74 2.34234 113.079 1.67822 114.387C1.79552 115.071 1.94022 115.745 2.11081 116.408C2.42857 117.645 2.49634 118.928 2.39481 120.201C2.33199 120.988 2.44316 121.687 2.73787 122.271C3.54728 123.873 5.86492 124.878 9.1508 125.121C10.119 125.194 11.1696 125.2 12.2908 125.135C12.2908 125.134 12.2908 125.134 12.2908 125.134C10.9224 125.047 9.71538 124.829 8.70962 124.494V124.494Z" fill="url(#paint15_linear)"/>
</g>
<g id="uranus-small-three">
<path id="Vector_46" d="M51.7972 140C56.3274 140 59.9999 136.327 59.9999 131.797C59.9999 127.267 56.3274 123.595 51.7972 123.595C47.267 123.595 43.5945 127.267 43.5945 131.797C43.5945 136.327 47.267 140 51.7972 140Z" fill="url(#paint16_linear)"/>
<g id="Group_12">
<path id="Vector_47" d="M51.7973 123.595C51.2948 123.595 50.8037 123.642 50.326 123.729C54.1538 124.422 57.0575 127.769 57.0575 131.797C57.0575 133.109 56.7479 134.348 56.2004 135.447C55.9228 134.197 54.7727 133.276 53.422 133.358C52.1094 133.437 51.0292 134.492 50.9212 135.802C50.8645 136.491 51.0685 137.13 51.4453 137.633C52.0435 138.431 51.6238 139.583 50.6505 139.8C50.5432 139.824 50.435 139.846 50.3261 139.866C50.8037 139.952 51.2948 140 51.7974 140C56.3277 140 60.0001 136.327 60.0001 131.797C60.0001 127.267 56.3274 123.595 51.7973 123.595V123.595Z" fill="url(#paint17_linear)"/>
<path id="Vector_48" d="M47.6496 133.353C48.6079 133.353 49.3849 132.576 49.3849 131.618C49.3849 130.659 48.6079 129.882 47.6496 129.882C46.6912 129.882 45.9143 130.659 45.9143 131.618C45.9143 132.576 46.6912 133.353 47.6496 133.353Z" fill="url(#paint18_linear)"/>
<path id="Vector_49" d="M52.9348 129.882C53.8931 129.882 54.67 129.105 54.67 128.147C54.67 127.189 53.8931 126.412 52.9348 126.412C51.9764 126.412 51.1995 127.189 51.1995 128.147C51.1995 129.105 51.9764 129.882 52.9348 129.882Z" fill="url(#paint19_linear)"/>
</g>
</g>
<path id="uranus-small-three_2" d="M49.3334 86.1302C51.0261 86.1302 52.3984 84.758 52.3984 83.0652C52.3984 81.3724 51.0261 80.0001 49.3334 80.0001C47.6406 80.0001 46.2683 81.3724 46.2683 83.0652C46.2683 84.758 47.6406 86.1302 49.3334 86.1302Z" fill="url(#paint20_linear)"/>
<path id="uranus-small-one" d="M3.06505 140C4.75783 140 6.13011 138.628 6.13011 136.935C6.13011 135.242 4.75783 133.87 3.06505 133.87C1.37227 133.87 0 135.242 0 136.935C0 138.628 1.37227 140 3.06505 140Z" fill="url(#paint21_linear)"/>
</g>
<g id="mars">
<path id="Vector_50" d="M229.681 122.507C229.612 122.368 229.544 122.228 229.478 122.087C229.544 122.228 229.612 122.368 229.681 122.507Z" fill="#FF4F19"/>
<path id="Vector_51" d="M229.419 121.961C229.355 121.824 229.292 121.687 229.231 121.549C229.292 121.687 229.355 121.824 229.419 121.961Z" fill="#FF4F19"/>
<path id="Vector_52" d="M229.17 121.41C229.111 121.274 229.052 121.138 228.994 121.001C229.052 121.138 229.111 121.274 229.17 121.41Z" fill="#FF4F19"/>
<path id="Vector_53" d="M228.935 120.856C228.879 120.719 228.823 120.582 228.769 120.444C228.823 120.582 228.879 120.719 228.935 120.856Z" fill="#FF4F19"/>
<path id="Vector_54" d="M259.886 85.9235C264.063 87.07 267.819 89.2335 270.875 92.129C269.844 92.0047 268.797 91.9333 267.733 91.9333C254.271 91.9333 243.198 102.165 241.867 115.277C241.867 115.28 241.867 115.284 241.866 115.287C241.866 115.289 241.866 115.29 241.866 115.292C245.299 115.886 249.127 116.2 253 116.2C257.535 116.2 261.969 115.775 265.823 114.971C267.344 114.653 268.77 114.277 270.063 113.852C270.518 113.701 271.007 113.95 271.157 114.406C271.306 114.86 271.059 115.349 270.603 115.499C269.761 115.776 268.861 116.03 267.923 116.264C267.912 116.273 267.907 116.286 267.895 116.295L266.199 117.567L267.964 118.053C268.344 118.158 268.605 118.505 268.6 118.899C268.595 119.293 268.326 119.634 267.943 119.729C263.57 120.823 258.402 121.4 253 121.4C252.618 121.4 252.281 121.15 252.171 120.785C252.06 120.419 252.202 120.024 252.519 119.812C252.797 119.627 252.787 119.352 252.77 119.243C252.753 119.132 252.678 118.867 252.357 118.775L247.613 117.727C247.606 117.725 247.601 117.72 247.594 117.718C245.575 117.567 243.607 117.34 241.751 117.029C241.74 117.329 241.733 117.63 241.733 117.933C241.733 123.805 243.685 129.219 246.969 133.57C248.981 132.654 251.052 131.724 253.037 131.801C256.159 131.938 257.754 131.057 257.769 131.047C258.184 130.816 258.713 130.959 258.949 131.371C259.185 131.784 259.048 132.308 258.637 132.548C258.557 132.595 256.654 133.691 252.964 133.532C251.508 133.458 249.792 134.192 248.096 134.962C248.096 134.962 248.096 134.962 248.096 134.962C248.096 134.962 248.096 134.962 248.096 134.962C248.653 135.604 249.242 136.219 249.859 136.804C248.466 136.636 247.107 136.358 245.791 135.979C245.79 135.979 245.79 135.979 245.79 135.979C245.786 135.978 245.783 135.977 245.779 135.976C245.561 135.913 245.345 135.847 245.13 135.779C244.996 135.737 244.863 135.692 244.73 135.648C244.679 135.631 244.627 135.614 244.576 135.596C243.993 135.399 243.419 135.185 242.856 134.946C242.862 134.946 242.868 134.946 242.875 134.946C237.515 132.678 233.073 128.666 230.265 123.619C234.703 131.6 243.22 137 253 137C267.359 137 279 125.359 279 111C279 99.0246 270.903 88.942 259.886 85.9235ZM256.467 110.133C256.439 110.135 256.393 110.132 256.356 110.132C255.118 110.132 254.355 110.522 253.475 110.971C252.54 111.448 251.505 111.977 249.913 111.977C249.492 111.977 249.032 111.939 248.525 111.855C248.052 111.776 247.733 111.329 247.812 110.858C247.89 110.385 248.335 110.061 248.809 110.145C250.673 110.454 251.605 109.979 252.687 109.427C253.655 108.932 254.717 108.35 256.481 108.4C256.959 108.408 257.341 108.802 257.333 109.281C257.326 109.754 256.939 110.133 256.467 110.133ZM263.215 108.936C262.437 109.926 260.542 110.102 259.98 110.132C259.964 110.133 259.949 110.133 259.932 110.133C259.475 110.133 259.094 109.776 259.068 109.314C259.042 108.837 259.408 108.428 259.885 108.402C260.716 108.354 261.672 108.093 261.852 107.864C262.147 107.488 262.692 107.422 263.069 107.719C263.445 108.014 263.511 108.559 263.215 108.936ZM249.282 121.14C249.117 121.304 248.892 121.4 248.667 121.4C248.442 121.4 248.216 121.304 248.051 121.149C247.895 120.984 247.8 120.758 247.8 120.533C247.8 120.308 247.895 120.082 248.051 119.918C248.372 119.597 248.953 119.597 249.282 119.918C249.446 120.082 249.533 120.308 249.533 120.533C249.533 120.758 249.446 120.984 249.282 121.14ZM260.549 125.473C260.384 125.638 260.158 125.733 259.933 125.733C259.708 125.733 259.482 125.638 259.318 125.482C259.161 125.317 259.067 125.092 259.067 124.867C259.067 124.641 259.161 124.415 259.318 124.251C259.639 123.93 260.219 123.93 260.548 124.251C260.713 124.415 260.8 124.641 260.8 124.867C260.8 125.092 260.713 125.317 260.549 125.473ZM267.482 106.396C267.317 106.56 267.092 106.656 266.867 106.656C266.641 106.656 266.415 106.56 266.251 106.404C266.095 106.239 266 106.014 266 105.789C266 105.564 266.095 105.338 266.251 105.174C266.572 104.853 267.153 104.853 267.482 105.174C267.646 105.338 267.733 105.564 267.733 105.789C267.733 106.014 267.646 106.239 267.482 106.396ZM270.949 109.873C270.784 110.038 270.558 110.133 270.333 110.133C270.108 110.133 269.882 110.038 269.718 109.882C269.561 109.717 269.467 109.492 269.467 109.267C269.467 109.041 269.561 108.815 269.718 108.651C270.039 108.33 270.619 108.33 270.948 108.651C271.113 108.815 271.2 109.041 271.2 109.267C271.2 109.492 271.113 109.717 270.949 109.873ZM267.059 99.1408C266.994 99.1561 266.929 99.1628 266.865 99.1628C266.47 99.1628 266.113 98.8911 266.021 98.4891C265.915 98.0227 266.206 97.5581 266.673 97.4515C269.36 96.837 271.692 96.0792 273.649 95.2076C274.008 95.6764 274.352 96.1569 274.679 96.65C272.556 97.6291 270 98.4692 267.059 99.1408Z" fill="#FF4F19"/>
<path id="Vector_55" d="M229.956 123.047C229.88 122.904 229.806 122.759 229.734 122.614C229.806 122.759 229.88 122.904 229.956 123.047Z" fill="#FF4F19"/>
<path id="Vector_56" d="M230.243 123.58C230.159 123.43 230.078 123.278 229.997 123.126C230.077 123.278 230.159 123.43 230.243 123.58Z" fill="#FF4F19"/>
<path id="Vector_57" d="M227.325 115.111C227.309 115.014 227.294 114.917 227.28 114.819C227.294 114.917 227.309 115.014 227.325 115.111Z" fill="#FF4F19"/>
<path id="Vector_58" d="M256.864 85.2861C257.01 85.308 257.157 85.3319 257.302 85.3563C257.156 85.332 257.01 85.308 256.864 85.2861Z" fill="#FF4F19"/>
<path id="Vector_59" d="M257.484 85.3865C257.641 85.4138 257.797 85.4431 257.953 85.4732C257.797 85.4432 257.641 85.4137 257.484 85.3865Z" fill="#FF4F19"/>
<path id="Vector_60" d="M227.047 112.548C227.042 112.462 227.036 112.376 227.032 112.29C227.036 112.376 227.042 112.462 227.047 112.548Z" fill="#FF4F19"/>
<path id="Vector_61" d="M227.016 111.864C227.013 111.792 227.01 111.72 227.008 111.647C227.01 111.719 227.013 111.791 227.016 111.864Z" fill="#FF4F19"/>
<path id="Vector_62" d="M256.236 85.2003C256.373 85.2173 256.509 85.2365 256.646 85.2557C256.509 85.2365 256.373 85.2173 256.236 85.2003Z" fill="#FF4F19"/>
<path id="Vector_63" d="M253.659 85.0083C253.742 85.0104 253.824 85.0146 253.907 85.0174C253.824 85.0146 253.742 85.0104 253.659 85.0083Z" fill="#FF4F19"/>
<path id="Vector_64" d="M254.312 85.0328C254.415 85.038 254.519 85.0454 254.622 85.0518C254.519 85.0455 254.416 85.038 254.312 85.0328Z" fill="#FF4F19"/>
<path id="Vector_65" d="M258.097 85.5008C258.264 85.534 258.43 85.5692 258.595 85.6056C258.43 85.5693 258.264 85.534 258.097 85.5008Z" fill="#FF4F19"/>
<path id="Vector_66" d="M258.702 85.6289C258.879 85.6685 259.055 85.7101 259.231 85.7534C259.055 85.7102 258.879 85.6684 258.702 85.6289Z" fill="#FF4F19"/>
<path id="Vector_67" d="M259.299 85.7699C259.487 85.8167 259.674 85.8656 259.86 85.9165C259.674 85.8657 259.487 85.8167 259.299 85.7699Z" fill="#FF4F19"/>
<path id="Vector_68" d="M227.233 114.483C227.22 114.387 227.207 114.291 227.195 114.194C227.207 114.291 227.22 114.387 227.233 114.483Z" fill="#FF4F19"/>
<path id="Vector_69" d="M227.156 113.847C227.146 113.753 227.135 113.659 227.126 113.564C227.135 113.659 227.146 113.753 227.156 113.847Z" fill="#FF4F19"/>
<path id="Vector_70" d="M227.094 113.203C227.086 113.112 227.078 113.021 227.071 112.929C227.078 113.021 227.086 113.112 227.094 113.203Z" fill="#FF4F19"/>
<path id="Vector_71" d="M254.96 85.0732C255.076 85.0819 255.192 85.0928 255.307 85.1031C255.192 85.0928 255.076 85.0819 254.96 85.0732Z" fill="#FF4F19"/>
<path id="Vector_72" d="M227.838 117.568C227.811 117.464 227.785 117.36 227.76 117.256C227.785 117.36 227.811 117.464 227.838 117.568Z" fill="#FF4F19"/>
<path id="Vector_73" d="M228.718 120.308C228.663 120.165 228.608 120.022 228.556 119.878C228.608 120.022 228.663 120.165 228.718 120.308Z" fill="#FF4F19"/>
<path id="Vector_74" d="M228.001 118.168C227.97 118.058 227.94 117.948 227.91 117.838C227.94 117.948 227.97 118.058 228.001 118.168Z" fill="#FF4F19"/>
<path id="Vector_75" d="M227.688 116.962C227.664 116.861 227.642 116.76 227.619 116.659C227.642 116.76 227.664 116.861 227.688 116.962Z" fill="#FF4F19"/>
<path id="Vector_76" d="M228.528 119.8C228.36 119.332 228.205 118.857 228.063 118.377C228.205 118.857 228.36 119.332 228.528 119.8Z" fill="#FF4F19"/>
<path id="Vector_77" d="M227.552 116.351C227.532 116.252 227.512 116.152 227.492 116.052C227.512 116.152 227.532 116.252 227.552 116.351Z" fill="#FF4F19"/>
<path id="Vector_78" d="M227.431 115.734C227.413 115.636 227.396 115.537 227.379 115.439C227.396 115.537 227.413 115.636 227.431 115.734Z" fill="#FF4F19"/>
<path id="Vector_79" d="M255.601 85.1291C255.728 85.1418 255.854 85.1566 255.981 85.171C255.854 85.1566 255.728 85.1418 255.601 85.1291Z" fill="#FF4F19"/>
<path id="Vector_80" d="M242.874 134.946C242.868 134.946 242.862 134.946 242.856 134.946C243.418 135.185 243.993 135.399 244.576 135.597C244.627 135.614 244.679 135.631 244.73 135.648C244.863 135.692 244.995 135.737 245.129 135.779C245.345 135.847 245.561 135.913 245.778 135.976C245.782 135.977 245.786 135.978 245.79 135.979C245.79 135.979 245.79 135.979 245.79 135.979C247.107 136.358 248.465 136.636 249.859 136.804C249.241 136.219 248.653 135.604 248.095 134.962C247.937 135.034 247.779 135.106 247.621 135.178C247.001 135.46 246.392 135.737 245.8 135.975C245.717 135.951 245.634 135.928 245.552 135.903C245.259 135.816 244.97 135.722 244.682 135.626C244.496 135.563 244.309 135.503 244.125 135.437C243.924 135.364 243.727 135.283 243.528 135.206C243.309 135.12 243.091 135.036 242.875 134.945C243.88 134.97 245.412 134.279 246.903 133.6C246.927 133.589 246.951 133.579 246.974 133.568C247.334 134.044 247.705 134.512 248.096 134.962C249.792 134.192 251.507 133.458 252.964 133.532C256.654 133.691 258.557 132.596 258.637 132.548C259.048 132.309 259.185 131.784 258.949 131.371C258.713 130.959 258.184 130.817 257.769 131.048C257.754 131.057 256.159 131.938 253.036 131.801C251.051 131.724 248.981 132.654 246.969 133.57C243.685 129.219 241.733 123.806 241.733 117.933C241.733 117.63 241.74 117.329 241.751 117.029C243.607 117.341 245.575 117.567 247.594 117.718C247.601 117.72 247.606 117.725 247.613 117.727L252.357 118.775C252.678 118.867 252.753 119.133 252.77 119.243C252.787 119.352 252.797 119.627 252.519 119.812C252.202 120.024 252.06 120.419 252.17 120.785C252.281 121.15 252.618 121.4 253 121.4C258.402 121.4 263.57 120.823 267.943 119.729C268.326 119.634 268.595 119.293 268.6 118.899C268.605 118.505 268.344 118.158 267.964 118.053L266.199 117.567L267.895 116.295C267.906 116.286 267.912 116.273 267.922 116.264C268.86 116.03 269.761 115.776 270.603 115.499C271.059 115.349 271.306 114.86 271.157 114.406C271.007 113.95 270.518 113.702 270.063 113.852C268.77 114.277 267.344 114.653 265.823 114.971C261.969 115.775 257.535 116.2 253 116.2C249.127 116.2 245.299 115.886 241.866 115.292C241.866 115.29 241.866 115.289 241.866 115.287C241.809 115.86 241.776 116.441 241.756 117.025C241.404 116.966 241.049 116.909 240.705 116.843C240.234 116.753 239.925 116.3 240.015 115.83C240.104 115.359 240.558 115.051 241.028 115.14C241.299 115.192 241.591 115.229 241.867 115.277C243.198 102.165 254.271 91.9333 267.733 91.9333C268.797 91.9333 269.844 92.0047 270.875 92.129C267.819 89.2336 264.063 87.07 259.886 85.9235C259.877 85.9212 259.869 85.9189 259.86 85.9166C259.674 85.8657 259.487 85.8168 259.299 85.77C259.276 85.7644 259.253 85.759 259.231 85.7535C259.055 85.7102 258.879 85.6686 258.702 85.629C258.667 85.621 258.631 85.6135 258.595 85.6057C258.43 85.5693 258.264 85.5342 258.097 85.5009C258.049 85.4914 258.001 85.4825 257.953 85.4732C257.797 85.4431 257.641 85.4138 257.484 85.3865C257.424 85.376 257.363 85.3665 257.303 85.3564C257.157 85.332 257.01 85.3081 256.864 85.2862C256.791 85.2754 256.718 85.266 256.646 85.2557C256.509 85.2365 256.373 85.2173 256.236 85.2003C256.151 85.1898 256.066 85.1809 255.981 85.1712C255.855 85.1567 255.728 85.1418 255.601 85.1292C255.504 85.1195 255.405 85.1118 255.308 85.1031C255.192 85.093 255.076 85.082 254.96 85.0732C254.848 85.0649 254.735 85.0587 254.622 85.0518C254.519 85.0454 254.416 85.0379 254.312 85.0328C254.177 85.0261 254.042 85.0221 253.907 85.0174C253.824 85.0146 253.742 85.0104 253.659 85.0083C253.44 85.0029 253.22 85 253 85C241.623 85 231.955 92.3074 228.428 102.484C228.479 102.337 228.53 102.191 228.584 102.045C228.603 102.062 228.627 102.07 228.644 102.089C230.031 103.57 232.554 104.941 235.94 106.053C236.395 106.203 236.643 106.692 236.494 107.147C236.373 107.512 236.035 107.743 235.67 107.743C235.58 107.743 235.49 107.73 235.4 107.7C232.174 106.641 229.64 105.326 227.998 103.871C228.129 103.409 228.27 102.95 228.424 102.497C227.502 105.161 227 108.022 227 111C227 111.216 227.003 111.432 227.008 111.647C227.01 111.72 227.014 111.792 227.016 111.864C227.02 112.006 227.025 112.149 227.032 112.29C227.036 112.376 227.042 112.462 227.047 112.548C227.055 112.675 227.062 112.803 227.071 112.93C227.078 113.021 227.086 113.112 227.094 113.203C227.104 113.324 227.114 113.444 227.126 113.564C227.135 113.659 227.146 113.753 227.156 113.847C227.169 113.963 227.181 114.079 227.196 114.194C227.207 114.291 227.22 114.387 227.233 114.483C227.248 114.595 227.264 114.707 227.28 114.819C227.294 114.917 227.309 115.014 227.325 115.111C227.342 115.221 227.36 115.33 227.379 115.439C227.396 115.537 227.413 115.636 227.431 115.734C227.451 115.84 227.471 115.946 227.492 116.052C227.512 116.152 227.532 116.252 227.553 116.351C227.574 116.454 227.597 116.556 227.62 116.659C227.642 116.76 227.664 116.861 227.688 116.962C227.711 117.06 227.736 117.158 227.76 117.256C227.785 117.36 227.811 117.464 227.838 117.568C227.861 117.658 227.886 117.748 227.911 117.838C227.941 117.948 227.97 118.058 228.001 118.168C228.021 118.238 228.043 118.307 228.064 118.377C228.206 118.857 228.36 119.332 228.529 119.8C228.538 119.826 228.547 119.852 228.556 119.878C228.609 120.022 228.663 120.165 228.718 120.307C228.735 120.353 228.752 120.398 228.77 120.443C228.823 120.582 228.879 120.719 228.936 120.856C228.955 120.904 228.975 120.953 228.995 121.001C229.052 121.138 229.111 121.274 229.17 121.41C229.191 121.456 229.211 121.503 229.231 121.549C229.293 121.687 229.355 121.824 229.419 121.961C229.439 122.003 229.458 122.045 229.478 122.087C229.544 122.228 229.612 122.368 229.681 122.507C229.699 122.543 229.716 122.578 229.734 122.613C229.807 122.759 229.881 122.903 229.956 123.047C229.97 123.073 229.984 123.099 229.997 123.125C230.078 123.278 230.16 123.43 230.243 123.58C230.25 123.593 230.258 123.606 230.265 123.619C233.073 128.666 237.515 132.678 242.874 134.946ZM245.451 93.0513C245.772 92.7306 246.353 92.7306 246.682 93.0513C246.846 93.2156 246.933 93.4416 246.933 93.6667C246.933 93.8918 246.846 94.1169 246.682 94.2735C246.517 94.4377 246.292 94.5333 246.067 94.5333C245.842 94.5333 245.616 94.4377 245.451 94.282C245.295 94.1169 245.2 93.8918 245.2 93.6667C245.2 93.4416 245.295 93.2156 245.451 93.0513ZM238.357 96.4864C239.028 95.4315 240.227 94.9931 241.035 95.507C241.843 96.021 241.953 97.2927 241.282 98.3475C240.611 99.4024 239.412 99.8408 238.604 99.3269C237.796 98.8129 237.686 97.5412 238.357 96.4864ZM233.027 114.772C232.812 113.779 233.255 112.84 234.016 112.675C234.776 112.511 235.567 113.183 235.782 114.177C235.996 115.17 235.554 116.109 234.793 116.273C234.033 116.437 233.242 115.765 233.027 114.772Z" fill="#DB3F3D"/>
<path id="Vector_81" d="M256.481 108.4C254.717 108.35 253.655 108.932 252.687 109.427C251.605 109.979 250.673 110.454 248.809 110.145C248.335 110.061 247.89 110.386 247.812 110.858C247.733 111.329 248.052 111.776 248.525 111.855C249.032 111.939 249.492 111.977 249.913 111.977C251.505 111.977 252.54 111.448 253.475 110.971C254.355 110.522 255.118 110.132 256.356 110.132C256.393 110.132 256.439 110.135 256.467 110.133C256.939 110.133 257.326 109.754 257.333 109.281C257.341 108.802 256.959 108.408 256.481 108.4Z" fill="#DB3F3D"/>
<path id="Vector_82" d="M263.069 107.719C262.692 107.422 262.147 107.488 261.852 107.864C261.672 108.094 260.716 108.354 259.885 108.402C259.408 108.428 259.042 108.837 259.068 109.314C259.094 109.776 259.475 110.133 259.933 110.133C259.949 110.133 259.964 110.133 259.98 110.133C260.542 110.102 262.437 109.926 263.215 108.936C263.511 108.559 263.445 108.014 263.069 107.719Z" fill="#DB3F3D"/>
<path id="Vector_83" d="M238.356 96.4865C237.685 97.5413 237.796 98.8131 238.603 99.3271C239.411 99.8411 240.61 99.4026 241.281 98.3477C241.952 97.2929 241.842 96.0211 241.034 95.5071C240.226 94.9931 239.028 95.4316 238.356 96.4865Z" fill="#A03939"/>
<path id="Vector_84" d="M234.793 116.272C235.554 116.108 235.996 115.169 235.782 114.176C235.567 113.182 234.776 112.51 234.016 112.675C233.255 112.839 232.813 113.778 233.027 114.771C233.242 115.764 234.033 116.436 234.793 116.272Z" fill="#A03939"/>
<path id="Vector_85" d="M246.067 94.5333C246.292 94.5333 246.517 94.4377 246.682 94.2736C246.846 94.1169 246.933 93.8918 246.933 93.6667C246.933 93.4416 246.846 93.2156 246.682 93.0513C246.353 92.7306 245.772 92.7306 245.451 93.0513C245.295 93.2156 245.2 93.4416 245.2 93.6667C245.2 93.8918 245.295 94.1169 245.451 94.282C245.616 94.4377 245.842 94.5333 246.067 94.5333Z" fill="#A03939"/>
<path id="Vector_86" d="M266.251 105.174C266.095 105.338 266 105.564 266 105.789C266 106.014 266.095 106.24 266.251 106.405C266.416 106.56 266.642 106.656 266.867 106.656C267.092 106.656 267.317 106.56 267.482 106.396C267.646 106.24 267.733 106.015 267.733 105.789C267.733 105.564 267.646 105.338 267.482 105.174C267.153 104.853 266.572 104.853 266.251 105.174Z" fill="#DB3F3D"/>
<path id="Vector_87" d="M269.718 108.651C269.561 108.816 269.467 109.042 269.467 109.267C269.467 109.492 269.561 109.717 269.718 109.882C269.882 110.038 270.108 110.133 270.333 110.133C270.558 110.133 270.784 110.038 270.949 109.874C271.113 109.717 271.2 109.492 271.2 109.267C271.2 109.041 271.113 108.816 270.949 108.651C270.619 108.331 270.039 108.331 269.718 108.651Z" fill="#DB3F3D"/>
<path id="Vector_88" d="M248.051 119.918C247.895 120.082 247.8 120.308 247.8 120.533C247.8 120.758 247.895 120.984 248.051 121.149C248.216 121.304 248.442 121.4 248.667 121.4C248.892 121.4 249.117 121.304 249.282 121.14C249.446 120.984 249.533 120.759 249.533 120.533C249.533 120.308 249.446 120.082 249.282 119.918C248.953 119.597 248.372 119.597 248.051 119.918Z" fill="#DB3F3D"/>
<path id="Vector_89" d="M259.318 124.251C259.161 124.416 259.067 124.642 259.067 124.867C259.067 125.092 259.161 125.317 259.318 125.482C259.482 125.638 259.708 125.733 259.933 125.733C260.158 125.733 260.384 125.638 260.549 125.474C260.713 125.317 260.8 125.092 260.8 124.867C260.8 124.641 260.713 124.416 260.549 124.251C260.219 123.931 259.639 123.931 259.318 124.251Z" fill="#DB3F3D"/>
<path id="Vector_90" d="M240.015 115.83C239.926 116.3 240.234 116.753 240.705 116.843C241.049 116.909 241.404 116.966 241.756 117.025C241.776 116.441 241.809 115.861 241.867 115.287C241.867 115.284 241.867 115.28 241.868 115.277C241.591 115.229 241.3 115.192 241.029 115.14C240.558 115.051 240.104 115.36 240.015 115.83Z" fill="#A03939"/>
<path id="Vector_91" d="M235.4 107.7C235.49 107.73 235.58 107.743 235.67 107.743C236.035 107.743 236.373 107.512 236.494 107.146C236.643 106.692 236.395 106.203 235.94 106.053C232.554 104.941 230.031 103.57 228.645 102.089C228.627 102.07 228.603 102.062 228.584 102.045C228.53 102.191 228.479 102.337 228.428 102.484C228.427 102.488 228.425 102.492 228.424 102.497C228.27 102.949 228.129 103.409 227.998 103.871C229.64 105.326 232.174 106.641 235.4 107.7Z" fill="#A03939"/>
<path id="Vector_92" d="M246.974 133.568C246.951 133.579 246.927 133.589 246.903 133.6C245.412 134.279 243.88 134.97 242.875 134.945C243.091 135.036 243.309 135.12 243.528 135.206C243.727 135.283 243.924 135.364 244.125 135.437C244.309 135.503 244.496 135.563 244.682 135.626C244.97 135.722 245.259 135.816 245.552 135.903C245.634 135.928 245.717 135.951 245.8 135.975C246.392 135.737 247.001 135.46 247.621 135.178C247.779 135.106 247.937 135.034 248.095 134.962C248.095 134.962 248.096 134.962 248.096 134.962C248.096 134.962 248.096 134.962 248.096 134.962C247.705 134.512 247.334 134.044 246.974 133.568Z" fill="#A03939"/>
<path id="Vector_93" d="M273.649 95.2076C271.692 96.0794 269.36 96.837 266.673 97.4515C266.206 97.5581 265.915 98.0228 266.021 98.4891C266.113 98.8912 266.47 99.1629 266.865 99.1629C266.929 99.1629 266.994 99.156 267.059 99.1409C270 98.4692 272.556 97.6292 274.679 96.6501C274.352 96.1569 274.008 95.6765 273.649 95.2076Z" fill="#DB3F3D"/>
</g>
<g id="surface1">
<path id="Vector_94" d="M539.947 110.485C539.947 119.031 533.019 125.959 524.474 125.959C515.928 125.959 509.001 119.031 509.001 110.485C509.001 101.94 515.928 95.0122 524.474 95.0122C533.019 95.0122 539.947 101.94 539.947 110.485Z" fill="#C3C9D1"/>
<path id="Vector_95" d="M534.074 98.3548C534.074 98.3964 534.078 98.4376 534.078 98.4792C534.077 110.153 525.59 120.095 514.061 121.929C520.36 127.703 530.148 127.277 535.922 120.978C541.696 114.679 541.27 104.891 534.971 99.1168C534.682 98.851 534.383 98.5971 534.074 98.3548Z" fill="#B7BDC4"/>
<path id="Vector_96" d="M517.068 108.285C516.184 108.285 515.468 107.569 515.468 106.685C515.468 105.801 516.184 105.084 517.068 105.084C517.952 105.084 518.669 105.801 518.669 106.685C518.669 107.569 517.952 108.285 517.068 108.285ZM517.068 106.151C516.774 106.151 516.535 106.39 516.535 106.685C516.535 106.979 516.774 107.218 517.068 107.218C517.363 107.218 517.602 106.979 517.602 106.685C517.602 106.39 517.363 106.151 517.068 106.151Z" fill="#808B96"/>
<path id="Vector_97" d="M512.8 107.752H513.867V108.819H512.8V107.752Z" fill="#808B96"/>
<path id="Vector_98" d="M520.27 101.349H521.337V102.416H520.27V101.349Z" fill="#808B96"/>
<path id="Vector_99" d="M527.206 105.618H528.273V106.685H527.206V105.618Z" fill="#808B96"/>
<path id="Vector_100" d="M521.337 115.222C520.158 115.222 519.202 114.266 519.202 113.087C519.202 111.909 520.158 110.953 521.337 110.953C522.515 110.953 523.471 111.909 523.471 113.087C523.471 114.266 522.515 115.222 521.337 115.222ZM521.337 112.02C520.747 112.02 520.27 112.498 520.27 113.087C520.27 113.677 520.747 114.155 521.337 114.155C521.926 114.155 522.404 113.677 522.404 113.087C522.404 112.498 521.926 112.02 521.337 112.02Z" fill="#808B96"/>
<path id="Vector_101" d="M535.743 116.289H536.81V117.356H535.743V116.289Z" fill="#808B96"/>
<path id="Vector_102" d="M533.075 102.95H534.142V104.017H533.075V102.95Z" fill="#808B96"/>
<path id="Vector_103" d="M528.807 122.158H529.874V123.225H528.807V122.158Z" fill="#808B96"/>
<path id="Vector_104" d="M516.535 119.49H517.602V120.557H516.535V119.49Z" fill="#808B96"/>
<path id="Vector_105" d="M529.34 114.155H530.407V115.222H529.34V114.155Z" fill="#808B96"/>
<path id="Vector_106" d="M509.713 109.998C511.374 107.588 513.405 105.454 515.73 103.676C517.367 102.424 518.866 101.001 520.2 99.4311L521.764 97.5921C521.989 97.3285 522.218 97.0692 522.451 96.8136C523.098 96.1205 523.833 95.5165 524.639 95.0177C524.532 95.0177 524.432 95.0118 524.327 95.0122C523.783 95.0177 523.239 95.0517 522.698 95.1143C522.333 95.4178 521.988 95.7449 521.666 96.0928C521.423 96.3573 521.185 96.6269 520.952 96.9005L519.387 98.7403C518.102 100.252 516.659 101.622 515.083 102.829C512.774 104.596 510.745 106.701 509.064 109.072C509.018 109.588 508.997 110.107 509 110.632C509 110.748 509.009 110.863 509.013 110.979L509.434 110.401L509.713 109.998Z" fill="#808B96"/>
<path id="Vector_107" d="M529.489 119.518C531.126 118.266 532.624 116.843 533.96 115.273L535.524 113.433C536.384 112.423 537.314 111.474 538.309 110.595L539.889 109.197C539.855 108.78 539.808 108.365 539.741 107.958L539.249 108.34L537.599 109.795C536.567 110.708 535.601 111.693 534.708 112.742L533.146 114.582C531.86 116.094 530.417 117.464 528.841 118.671C526.426 120.516 524.317 122.731 522.592 125.233L522.197 125.788C522.599 125.847 523.007 125.888 523.418 125.916L523.471 125.839C525.133 123.429 527.164 121.296 529.489 119.518Z" fill="#808B96"/>
<path id="Vector_108" d="M528.881 112.718C532.299 110.526 535.234 107.662 537.509 104.3L538.181 103.309C537.993 102.95 537.793 102.6 537.58 102.258L537.382 102.588L536.626 103.7C534.431 106.943 531.6 109.705 528.303 111.818C524.913 113.994 521.997 116.831 519.729 120.161L517.061 124.067C517.375 124.238 517.695 124.398 518.021 124.547L520.607 120.758C522.796 117.549 525.61 114.815 528.881 112.718Z" fill="#808B96"/>
<path id="Vector_109" d="M516.272 113.116C519.181 111.186 521.653 108.668 523.529 105.724C525.323 102.905 527.688 100.493 530.472 98.6446L532.141 97.5336L532.577 97.3048C532.221 97.0855 531.856 96.8806 531.482 96.6901L529.882 97.7573C526.974 99.6872 524.502 102.205 522.627 105.149C520.831 107.968 518.465 110.38 515.681 112.229C513.711 113.542 511.937 115.128 510.413 116.94C510.573 117.289 510.742 117.634 510.928 117.965L510.999 117.888C512.51 116.046 514.287 114.437 516.272 113.116Z" fill="#808B96"/>
</g>
</g>
<defs>
<linearGradient id="paint0_linear" x1="111.087" y1="110" x2="184.913" y2="110" gradientUnits="userSpaceOnUse">
<stop stop-color="#FECA9C"/>
<stop offset="0.5213" stop-color="#FD8087"/>
<stop offset="1" stop-color="#F46700"/>
</linearGradient>
<linearGradient id="paint1_linear" x1="81.5609" y1="98.6898" x2="175.824" y2="98.6898" gradientUnits="userSpaceOnUse">
<stop stop-color="#FECA9C"/>
<stop offset="0.5213" stop-color="#FD8087"/>
<stop offset="1" stop-color="#F46700"/>
</linearGradient>
<linearGradient id="paint2_linear" x1="81.5609" y1="110" x2="175.824" y2="110" gradientUnits="userSpaceOnUse">
<stop stop-color="#FECA9C"/>
<stop offset="0.5213" stop-color="#FD8087"/>
<stop offset="1" stop-color="#F46700"/>
</linearGradient>
<linearGradient id="paint3_linear" x1="102.661" y1="110" x2="194.98" y2="110" gradientUnits="userSpaceOnUse">
<stop stop-color="#FEF056"/>
<stop offset="0.5213" stop-color="#F4D902"/>
<stop offset="1" stop-color="#FE9738"/>
</linearGradient>
<linearGradient id="paint4_linear" x1="82.4262" y1="110" x2="169.881" y2="110" gradientUnits="userSpaceOnUse">
<stop stop-color="#FEF056"/>
<stop offset="0.5213" stop-color="#F4D902"/>
<stop offset="1" stop-color="#FE9738"/>
</linearGradient>
<linearGradient id="paint5_linear" x1="93.2871" y1="121.153" x2="135.414" y2="121.153" gradientUnits="userSpaceOnUse">
<stop stop-color="#FEF056"/>
<stop offset="0.5213" stop-color="#F4D902"/>
<stop offset="1" stop-color="#FE9738"/>
</linearGradient>
<linearGradient id="paint6_linear" x1="3.73224" y1="91.4439" x2="16.532" y2="91.4439" gradientUnits="userSpaceOnUse">
<stop stop-color="#EAF6FF"/>
<stop offset="0.5213" stop-color="#D8ECFE"/>
<stop offset="1" stop-color="#B3DAFE"/>
</linearGradient>
<linearGradient id="paint7_linear" x1="1.14401" y1="91.8599" x2="13.6953" y2="91.8599" gradientUnits="userSpaceOnUse">
<stop stop-color="#EAF6FF"/>
<stop offset="0.5213" stop-color="#D8ECFE"/>
<stop offset="1" stop-color="#B3DAFE"/>
</linearGradient>
<linearGradient id="paint8_linear" x1="4.24691" y1="110" x2="55.7533" y2="110" gradientUnits="userSpaceOnUse">
<stop stop-color="#60B7FF"/>
<stop offset="0.5857" stop-color="#0182FC"/>
<stop offset="1" stop-color="#2740B0"/>
</linearGradient>
<linearGradient id="paint9_linear" x1="-10.196" y1="102.109" x2="53.4531" y2="102.109" gradientUnits="userSpaceOnUse">
<stop stop-color="#60B7FF"/>
<stop offset="0.5857" stop-color="#0182FC"/>
<stop offset="1" stop-color="#2740B0"/>
</linearGradient>
<linearGradient id="paint10_linear" x1="-10.196" y1="114.254" x2="53.4531" y2="114.254" gradientUnits="userSpaceOnUse">
<stop stop-color="#60B7FF"/>
<stop offset="0.5857" stop-color="#0182FC"/>
<stop offset="1" stop-color="#2740B0"/>
</linearGradient>
<linearGradient id="paint11_linear" x1="-10.1959" y1="90.0678" x2="53.4531" y2="90.0678" gradientUnits="userSpaceOnUse">
<stop stop-color="#60B7FF"/>
<stop offset="0.5857" stop-color="#0182FC"/>
<stop offset="1" stop-color="#2740B0"/>
</linearGradient>
<linearGradient id="paint12_linear" x1="-10.1953" y1="110" x2="53.4527" y2="110" gradientUnits="userSpaceOnUse">
<stop stop-color="#60B7FF"/>
<stop offset="0.5857" stop-color="#0182FC"/>
<stop offset="1" stop-color="#2740B0"/>
</linearGradient>
<linearGradient id="paint13_linear" x1="-1.63177" y1="110" x2="69.8825" y2="110" gradientUnits="userSpaceOnUse">
<stop stop-color="#EAF6FF"/>
<stop offset="0.5213" stop-color="#D8ECFE"/>
<stop offset="1" stop-color="#B3DAFE"/>
</linearGradient>
<linearGradient id="paint14_linear" x1="-0.235194" y1="110" x2="45.1888" y2="110" gradientUnits="userSpaceOnUse">
<stop stop-color="#EAF6FF"/>
<stop offset="0.5213" stop-color="#D8ECFE"/>
<stop offset="1" stop-color="#B3DAFE"/>
</linearGradient>
<linearGradient id="paint15_linear" x1="-15.4116" y1="117.781" x2="10.5159" y2="117.781" gradientUnits="userSpaceOnUse">
<stop stop-color="#EAF6FF"/>
<stop offset="0.5213" stop-color="#D8ECFE"/>
<stop offset="1" stop-color="#B3DAFE"/>
</linearGradient>
<linearGradient id="paint16_linear" x1="43.5945" y1="131.797" x2="60" y2="131.797" gradientUnits="userSpaceOnUse">
<stop stop-color="#EAF6FF"/>
<stop offset="0.5213" stop-color="#D8ECFE"/>
<stop offset="1" stop-color="#B3DAFE"/>
</linearGradient>
<linearGradient id="paint17_linear" x1="37.8824" y1="131.797" x2="54.8338" y2="131.797" gradientUnits="userSpaceOnUse">
<stop stop-color="#EAF6FF"/>
<stop offset="0.5213" stop-color="#D8ECFE"/>
<stop offset="1" stop-color="#B3DAFE"/>
</linearGradient>
<linearGradient id="paint18_linear" x1="37.8824" y1="131.618" x2="54.8338" y2="131.618" gradientUnits="userSpaceOnUse">
<stop stop-color="#EAF6FF"/>
<stop offset="0.5213" stop-color="#D8ECFE"/>
<stop offset="1" stop-color="#B3DAFE"/>
</linearGradient>
<linearGradient id="paint19_linear" x1="37.8824" y1="128.147" x2="54.8338" y2="128.147" gradientUnits="userSpaceOnUse">
<stop stop-color="#EAF6FF"/>
<stop offset="0.5213" stop-color="#D8ECFE"/>
<stop offset="1" stop-color="#B3DAFE"/>
</linearGradient>
<linearGradient id="paint20_linear" x1="44.8375" y1="83.0652" x2="51.0738" y2="83.0652" gradientUnits="userSpaceOnUse">
<stop stop-color="#EAF6FF"/>
<stop offset="0.5213" stop-color="#D8ECFE"/>
<stop offset="1" stop-color="#B3DAFE"/>
</linearGradient>
<linearGradient id="paint21_linear" x1="-1.43082" y1="136.935" x2="4.80564" y2="136.935" gradientUnits="userSpaceOnUse">
<stop stop-color="#EAF6FF"/>
<stop offset="0.5213" stop-color="#D8ECFE"/>
<stop offset="1" stop-color="#B3DAFE"/>
</linearGradient>
</defs>
</svg>
