<svg width="223" height="221" viewBox="0 0 223 221" fill="none" xmlns="http://www.w3.org/2000/svg">
<g id="sun">
<path id="sun-shine" d="M113.299 217.283L127.667 220.057C129.934 220.494 132.282 220.091 134.272 218.921L146.549 211.708C147.555 211.118 148.662 210.717 149.813 210.527L163.767 208.227C166.032 207.854 168.085 206.671 169.546 204.9L178.971 193.466C179.754 192.516 180.715 191.726 181.8 191.144L193.869 184.657C195.915 183.557 197.487 181.746 198.286 179.565L203.433 165.528C203.815 164.485 204.378 163.518 205.095 162.67L214.435 151.617C215.882 149.904 216.676 147.734 216.676 145.491V130.838C216.676 129.703 216.88 128.577 217.278 127.513L222.399 113.825C223.201 111.681 223.201 109.319 222.399 107.175L217.278 93.4871C216.88 92.4235 216.676 91.2976 216.676 90.1619V75.5088C216.676 73.2665 215.882 71.0963 214.435 69.3835L205.095 58.3305C204.378 57.4822 203.815 56.5148 203.433 55.4722L198.286 41.4351C197.486 39.2545 195.915 37.4429 193.869 36.343L181.8 29.856C180.715 29.2727 179.754 28.4839 178.97 27.5336L169.546 16.1004C168.086 14.3286 166.032 13.1468 163.767 12.773L149.813 10.473C148.661 10.2832 147.555 9.88296 146.549 9.29161L134.272 2.07898C132.282 0.909705 129.933 0.50592 127.667 0.943279L113.299 3.71695C112.111 3.94615 110.89 3.94615 109.702 3.71695L95.3336 0.943279C93.0667 0.50592 90.7183 0.909257 88.728 2.07898L76.451 9.29161C75.4452 9.88251 74.3386 10.2832 73.1872 10.473L59.2333 12.773C56.9677 13.1464 54.9148 14.3286 53.4541 16.1004L44.0296 27.534C43.2462 28.4844 42.2851 29.2736 41.2 29.8565L29.1312 36.3434C27.0854 37.4429 25.5137 39.2545 24.7142 41.4355L19.567 55.4726C19.1847 56.5152 18.6225 57.4826 17.9053 58.3309L8.56499 69.384C7.11772 71.0967 6.32358 73.2669 6.32358 75.5093V90.1624C6.32358 91.2976 6.1199 92.4239 5.72193 93.4875L0.601649 107.175C-0.20055 109.319 -0.20055 111.681 0.601649 113.825L5.72238 127.513C6.12035 128.577 6.32403 129.702 6.32403 130.838V145.491C6.32403 147.734 7.11817 149.904 8.56544 151.617L17.9058 162.67C18.6225 163.518 19.1852 164.485 19.5675 165.528L24.7146 179.565C25.5141 181.746 27.0858 183.557 29.1316 184.657L41.2004 191.144C42.2855 191.727 43.2467 192.516 44.03 193.466L53.455 204.9C54.9152 206.672 56.9686 207.854 59.2342 208.227L73.1881 210.528C74.3395 210.717 75.4456 211.118 76.4519 211.709L88.7289 218.921C90.7192 220.091 93.068 220.495 95.3345 220.057L109.702 217.284C110.89 217.054 112.11 217.054 113.299 217.283V217.283Z" fill="#FEE97D"/>
<g id="Group">
<path id="Vector" d="M111.725 201.561C162.016 201.561 202.786 160.792 202.786 110.5C202.786 60.2085 162.016 19.4391 111.725 19.4391C61.4329 19.4391 20.6635 60.2085 20.6635 110.5C20.6635 160.792 61.4329 201.561 111.725 201.561Z" fill="#FECA9C"/>
<path id="Vector_2" d="M72.1218 110.5C72.1218 69.1449 99.7014 34.2305 137.462 23.1277C129.303 20.7283 120.66 19.4391 111.724 19.4391C61.4318 19.4391 20.6624 60.2084 20.6624 110.5C20.6624 160.792 61.4318 201.561 111.724 201.561C120.66 201.561 129.307 200.271 137.467 197.872C99.7059 186.769 72.1218 151.855 72.1218 110.5V110.5Z" fill="#FDB97E"/>
<path id="Vector_3" d="M111.724 188.132C154.599 188.132 189.356 153.375 189.356 110.5C189.356 67.6255 154.599 32.8687 111.724 32.8687C68.8494 32.8687 34.0926 67.6255 34.0926 110.5C34.0926 153.375 68.8494 188.132 111.724 188.132Z" fill="#FEA95C"/>
<path id="Vector_4" d="M115.432 32.9591C114.203 32.901 112.967 32.8687 111.724 32.8687C68.9175 32.8687 34.0921 67.6941 34.0921 110.5C34.0921 153.306 68.9175 188.132 111.724 188.132C112.967 188.132 114.203 188.1 115.432 188.041C89.4447 172.006 72.1218 143.279 72.1218 110.5C72.1218 77.7216 89.4447 48.9942 115.432 32.9591V32.9591Z" fill="#FE9738"/>
<path id="Vector_5" d="M97.4304 78.6675C105.455 78.6675 111.96 72.9755 111.96 65.954C111.96 58.9326 105.455 53.2406 97.4304 53.2406C89.406 53.2406 82.9009 58.9326 82.9009 65.954C82.9009 72.9755 89.406 78.6675 97.4304 78.6675Z" fill="#FE860A"/>
<path id="Vector_6" d="M77.7054 108.103C82.6407 108.103 86.6415 104.602 86.6415 100.284C86.6415 95.9661 82.6407 92.4655 77.7054 92.4655C72.7701 92.4655 68.7693 95.9661 68.7693 100.284C68.7693 104.602 72.7701 108.103 77.7054 108.103Z" fill="#FE860A"/>
<path id="Vector_7" d="M133.442 170.512C140.913 170.512 146.97 165.212 146.97 158.674C146.97 152.137 140.913 146.837 133.442 146.837C125.971 146.837 119.914 152.137 119.914 158.674C119.914 165.212 125.971 170.512 133.442 170.512Z" fill="#FE9738"/>
</g>
</g>
</svg>
