<svg width="60" height="61" viewBox="0 0 60 61" fill="none" xmlns="http://www.w3.org/2000/svg">
<g id="uranus">
<g id="uranus-small-two">
<path id="Vector" d="M10.9284 17.5628C14.1815 17.5628 16.8186 14.9257 16.8186 11.6726C16.8186 8.4195 14.1815 5.78236 10.9284 5.78236C7.67532 5.78236 5.03818 8.4195 5.03818 11.6726C5.03818 14.9257 7.67532 17.5628 10.9284 17.5628Z" fill="url(#paint0_linear)"/>
<path id="Vector_2" d="M5.879 14.7064C8.07793 11.5635 10.8108 8.82236 13.9469 6.61448C15.6666 7.64307 16.8186 9.52295 16.8186 11.6726C16.8186 14.9256 14.1814 17.5628 10.9284 17.5628C8.78499 17.5628 6.90947 16.4178 5.879 14.7064V14.7064Z" fill="url(#paint1_linear)"/>
</g>
<g id="uranus-body">
<path id="Vector_3" d="M30.0001 55.982C44.2232 55.982 55.7533 44.4519 55.7533 30.2288C55.7533 16.0057 44.2232 4.47554 30.0001 4.47554C15.777 4.47554 4.24686 16.0057 4.24686 30.2288C4.24686 44.4519 15.777 55.982 30.0001 55.982Z" fill="url(#paint2_linear)"/>
<g id="Group">
<path id="Vector_4" d="M11.7652 25.2656C12.6183 25.0152 13.4759 24.7453 14.3365 24.4563C15.7329 23.9876 16.4744 22.4643 15.9871 21.0743L15.9867 21.0734C15.5087 19.7099 14.0236 18.9793 12.654 19.4399C11.8585 19.7074 11.0666 19.957 10.28 20.1883C9.07311 20.5433 8.28123 21.6956 8.38735 22.9493C8.5284 24.6153 10.161 25.7367 11.7652 25.2656V25.2656Z" fill="url(#paint3_linear)"/>
<path id="Vector_5" d="M19.7819 35.9312C19.7819 35.0462 19.5803 34.2085 19.2206 33.4612C20.9047 33.451 22.2671 32.083 22.2671 30.3966C22.2671 28.7038 20.8947 27.3314 19.202 27.3314C17.5093 27.3314 16.137 28.7038 16.137 30.3966C16.137 30.4706 16.1405 30.5439 16.1457 30.6166C15.505 30.3674 14.8089 30.2292 14.08 30.2292C10.9309 30.2292 8.37793 32.7821 8.37793 35.9313C8.37793 39.0804 10.9309 41.6333 14.08 41.6333C17.2291 41.6332 19.7819 39.0803 19.7819 35.9312V35.9312Z" fill="url(#paint4_linear)"/>
<path id="Vector_6" d="M23.2019 13.3615C24.8947 13.3615 26.267 11.9893 26.267 10.2965C26.267 8.60371 24.8947 7.23144 23.2019 7.23144C21.5091 7.23144 20.1369 8.60371 20.1369 10.2965C20.1369 11.9893 21.5091 13.3615 23.2019 13.3615Z" fill="url(#paint5_linear)"/>
<path id="Vector_7" d="M30.0001 4.47591C29.206 4.47591 28.4213 4.51356 27.646 4.58415C31.1107 4.83944 32.2436 9.3159 29.3884 11.2394C27.5966 12.4453 25.6754 13.5982 23.6519 14.6794C22.3401 15.3806 21.806 17.0324 22.4707 18.3618C22.9166 19.2535 23.8072 19.7641 24.7342 19.7641C25.1354 19.7641 25.5448 19.6676 25.926 19.4653C28.4307 18.1359 30.7989 16.6982 32.9895 15.1841C34.2589 14.3053 35.9907 14.5453 36.9848 15.7253C37.4625 16.2912 37.693 16.9782 37.693 17.6594C37.693 18.5924 37.2613 19.5159 36.4378 20.1065C35.3436 20.89 34.1954 21.6547 32.9989 22.3947C31.9366 23.0512 31.4307 24.3523 31.8436 25.53C32.4201 27.1723 34.326 27.7947 35.7483 26.9159C39.3636 24.6806 42.5966 22.2288 45.2871 19.6712C46.5071 18.5112 48.5095 18.9488 49.146 20.5076C49.1518 20.5229 49.1589 20.5394 49.1648 20.5547C49.5118 21.41 49.3342 22.39 48.7095 23.0688C47.9813 23.8606 47.0483 24.85 46.566 25.3029C43.9472 27.7665 40.7495 30.13 37.146 32.2723C36.5978 30.237 34.6766 28.7641 32.4366 28.9088C30.1166 29.0606 28.2625 30.9759 28.1813 33.2994C28.1413 34.4523 28.5307 35.5147 29.2001 36.3382C28.346 36.7111 27.4907 37.0664 26.6366 37.4017C25.3048 37.9241 24.5684 39.3935 25.0307 40.7464C25.5201 42.1758 27.099 42.9041 28.4978 42.357C29.8272 41.8382 31.1566 41.2758 32.4825 40.6723C39.8236 37.3241 46.293 33.0194 50.9801 28.397C51.0236 29.0017 51.0448 29.6135 51.0448 30.2288C51.0448 30.8347 51.0236 31.4347 50.9824 32.0288C47.3354 35.7535 42.3248 39.3029 36.586 42.1982C29.8848 45.5782 23.0554 47.6335 17.3154 47.9982C17.2225 48.0041 17.1296 48.0099 17.0366 48.0146C14.5907 48.1488 12.4825 47.9476 10.8566 47.4535C12.9896 49.8229 15.5554 51.7935 18.4307 53.2417C20.239 53.0876 22.126 52.7946 24.0672 52.3688C28.8601 51.3182 33.9742 49.4676 38.9801 46.9417C39.0154 46.9241 39.0507 46.9064 39.086 46.8888C41.333 45.7499 43.2954 48.8111 41.3248 50.3817C37.5013 53.4264 32.7931 55.4076 27.646 55.8735C28.4213 55.944 29.206 55.9817 30.0001 55.9817C44.2236 55.9817 55.753 44.4523 55.753 30.2288C55.753 16.0053 44.2236 4.47591 30.0001 4.47591V4.47591ZM40.4566 15.8665C38.7636 15.8665 37.3919 14.4947 37.3919 12.8018C37.3919 11.1088 38.7636 9.73708 40.4566 9.73708C42.1495 9.73708 43.5224 11.1088 43.5224 12.8018C43.5224 14.4947 42.1495 15.8665 40.4566 15.8665ZM46.6601 46.8335C44.9671 46.8335 43.5942 45.4617 43.5942 43.7688C43.5942 42.0758 44.9671 40.7029 46.6601 40.7029C48.353 40.7029 49.7248 42.0758 49.7248 43.7688C49.7248 45.4617 48.353 46.8335 46.6601 46.8335Z" fill="url(#paint6_linear)"/>
</g>
<path id="Vector_8" d="M59.0624 15.5641C57.0848 11.6429 52.3283 9.59469 45.6107 9.7441C47.8083 11.4217 49.7283 13.4453 51.2895 15.7335C52.7765 16.2288 53.8271 16.9829 54.3189 17.957C54.8107 18.93 54.793 20.2206 54.3107 21.7088C53.7695 23.3747 52.646 25.2876 50.9977 27.2817C50.9389 27.3523 50.8801 27.4229 50.8201 27.4935C47.1166 31.8958 41.406 36.1688 34.7036 39.5511C28.0025 42.9311 21.1731 44.9864 15.4331 45.3511C15.3401 45.357 15.2472 45.3629 15.1543 45.3676C12.5743 45.5087 10.3696 45.277 8.71074 44.7229C7.22369 44.2276 6.1731 43.4734 5.68134 42.4993C5.18957 41.5264 5.20722 40.237 5.68957 38.7487C4.79546 36.1958 4.29193 33.4594 4.25075 30.6111C0.136643 35.9264 -1.04218 40.9711 0.937818 44.8934C2.8484 48.6817 7.35192 50.7217 13.7107 50.7217C13.9343 50.7217 14.1601 50.7193 14.3896 50.7134C14.7354 50.7064 15.0872 50.6923 15.4437 50.6734C17.5813 50.557 19.8448 50.2346 22.1848 49.7217C26.9778 48.6711 32.0919 46.8205 37.0977 44.2946C42.1024 41.7687 46.6295 38.7546 50.3224 35.524C52.126 33.9464 53.7307 32.317 55.0942 30.6664C55.3212 30.3923 55.5401 30.1194 55.7495 29.8464C58.5601 26.2158 60.0001 22.7123 60.0001 19.6053C60.0001 18.1629 59.6895 16.8076 59.0624 15.5641V15.5641Z" fill="url(#paint7_linear)"/>
<path id="Vector_9" d="M60 19.6053C60 22.7123 58.5601 26.2158 55.7495 29.8464C55.5401 30.1194 55.3212 30.3923 55.0942 30.6664C53.7306 32.317 52.1259 33.9464 50.3224 35.524C46.6295 38.7546 42.1024 41.7687 37.0977 44.2946C32.0919 46.8205 26.9778 48.6711 22.1848 49.7217C19.8448 50.2346 17.5813 50.557 15.4437 50.6734C15.0872 50.6923 14.7354 50.7064 14.3895 50.7134C14.1601 50.7193 13.9343 50.7217 13.7107 50.7217C12.9213 50.7217 12.1601 50.6899 11.4284 50.6275C12.2472 50.5664 13.0837 50.477 13.9354 50.3581C15.0907 50.1981 16.2742 49.9852 17.4766 49.7217C22.2695 48.6711 27.3836 46.8205 32.3895 44.2946C37.3942 41.7687 41.9213 38.7546 45.6142 35.524C47.4177 33.9464 49.0224 32.317 50.386 30.6664C52.5518 28.0452 54.013 25.4794 54.7448 23.0688C55.1083 21.8723 55.2918 20.7135 55.2918 19.6053C55.2918 18.1629 54.9812 16.8076 54.3542 15.5641C52.9365 12.7535 50.0895 10.9053 46.1154 10.1394C45.9495 10.0053 45.7813 9.87352 45.6107 9.7441C52.3283 9.59469 57.0848 11.6429 59.0624 15.5641C59.6895 16.8076 60 18.1629 60 19.6053V19.6053Z" fill="url(#paint8_linear)"/>
<path id="Vector_10" d="M8.70968 44.7229C7.22263 44.2276 6.17204 43.4735 5.68145 42.4994C5.18969 41.5264 5.20734 40.237 5.68969 38.7488C5.26757 37.5442 4.93357 36.3003 4.69404 35.0217C4.42463 33.5897 4.27263 32.1162 4.25087 30.6111C3.20028 31.9684 2.3424 33.308 1.67828 34.6157C1.79558 35.2993 1.94028 35.9734 2.11087 36.6371C2.42864 37.874 2.4964 39.1563 2.39487 40.4292C2.33205 41.2165 2.44322 41.9152 2.73793 42.4992C3.54734 44.1016 5.86498 45.1063 9.15086 45.3498C10.1191 45.4228 11.1697 45.4286 12.2909 45.3639C12.2909 45.3628 12.2909 45.3628 12.2909 45.3628C10.9225 45.2758 9.71544 45.0582 8.70968 44.7229V44.7229Z" fill="url(#paint9_linear)"/>
</g>
<g id="uranus-small-three">
<path id="Vector_11" d="M51.7973 60.2286C56.3275 60.2286 60 56.5561 60 52.0259C60 47.4957 56.3275 43.8232 51.7973 43.8232C47.267 43.8232 43.5946 47.4957 43.5946 52.0259C43.5946 56.5561 47.267 60.2286 51.7973 60.2286Z" fill="url(#paint10_linear)"/>
<g id="Group_2">
<path id="Vector_12" d="M51.7974 43.8232C51.2949 43.8232 50.8037 43.8709 50.3261 43.9573C54.1539 44.651 57.0576 47.9982 57.0576 52.0259C57.0576 53.3377 56.748 54.5763 56.2004 55.6754C55.9229 54.426 54.7728 53.505 53.4221 53.5866C52.1095 53.6659 51.0293 54.7204 50.9213 56.031C50.8646 56.7194 51.0686 57.359 51.4454 57.8615C52.0436 58.6595 51.6239 59.8114 50.6506 60.0288C50.5433 60.0528 50.435 60.0747 50.3262 60.0945C50.8037 60.1811 51.2949 60.2286 51.7975 60.2286C56.3277 60.2286 60.0002 56.5561 60.0002 52.0259C60.0002 47.4957 56.3275 43.8232 51.7974 43.8232V43.8232Z" fill="url(#paint11_linear)"/>
<path id="Vector_13" d="M47.6496 53.5817C48.608 53.5817 49.3849 52.8048 49.3849 51.8464C49.3849 50.888 48.608 50.1111 47.6496 50.1111C46.6913 50.1111 45.9143 50.888 45.9143 51.8464C45.9143 52.8048 46.6913 53.5817 47.6496 53.5817Z" fill="url(#paint12_linear)"/>
<path id="Vector_14" d="M52.9348 50.1111C53.8932 50.1111 54.6701 49.3342 54.6701 48.3758C54.6701 47.4174 53.8932 46.6405 52.9348 46.6405C51.9764 46.6405 51.1995 47.4174 51.1995 48.3758C51.1995 49.3342 51.9764 50.1111 52.9348 50.1111Z" fill="url(#paint13_linear)"/>
</g>
</g>
<path id="uranus-small-three_2" d="M49.3334 6.35894C51.0262 6.35894 52.3985 4.98667 52.3985 3.29389C52.3985 1.60111 51.0262 0.228836 49.3334 0.228836C47.6406 0.228836 46.2684 1.60111 46.2684 3.29389C46.2684 4.98667 47.6406 6.35894 49.3334 6.35894Z" fill="url(#paint14_linear)"/>
<path id="uranus-small-one" d="M3.06511 60.2286C4.7579 60.2286 6.13017 58.8563 6.13017 57.1636C6.13017 55.4708 4.7579 54.0985 3.06511 54.0985C1.37233 54.0985 6.10352e-05 55.4708 6.10352e-05 57.1636C6.10352e-05 58.8563 1.37233 60.2286 3.06511 60.2286Z" fill="url(#paint15_linear)"/>
</g>
<defs>
<linearGradient id="paint0_linear" x1="3.7323" y1="11.6726" x2="16.532" y2="11.6726" gradientUnits="userSpaceOnUse">
<stop stop-color="#EAF6FF"/>
<stop offset="0.5213" stop-color="#D8ECFE"/>
<stop offset="1" stop-color="#B3DAFE"/>
</linearGradient>
<linearGradient id="paint1_linear" x1="1.14407" y1="12.0886" x2="13.6953" y2="12.0886" gradientUnits="userSpaceOnUse">
<stop stop-color="#EAF6FF"/>
<stop offset="0.5213" stop-color="#D8ECFE"/>
<stop offset="1" stop-color="#B3DAFE"/>
</linearGradient>
<linearGradient id="paint2_linear" x1="4.24697" y1="30.2288" x2="55.7533" y2="30.2288" gradientUnits="userSpaceOnUse">
<stop stop-color="#60B7FF"/>
<stop offset="0.5857" stop-color="#0182FC"/>
<stop offset="1" stop-color="#2740B0"/>
</linearGradient>
<linearGradient id="paint3_linear" x1="-10.1959" y1="22.3379" x2="53.4531" y2="22.3379" gradientUnits="userSpaceOnUse">
<stop stop-color="#60B7FF"/>
<stop offset="0.5857" stop-color="#0182FC"/>
<stop offset="1" stop-color="#2740B0"/>
</linearGradient>
<linearGradient id="paint4_linear" x1="-10.1959" y1="34.4823" x2="53.4531" y2="34.4823" gradientUnits="userSpaceOnUse">
<stop stop-color="#60B7FF"/>
<stop offset="0.5857" stop-color="#0182FC"/>
<stop offset="1" stop-color="#2740B0"/>
</linearGradient>
<linearGradient id="paint5_linear" x1="-10.1959" y1="10.2965" x2="53.4531" y2="10.2965" gradientUnits="userSpaceOnUse">
<stop stop-color="#60B7FF"/>
<stop offset="0.5857" stop-color="#0182FC"/>
<stop offset="1" stop-color="#2740B0"/>
</linearGradient>
<linearGradient id="paint6_linear" x1="-10.1952" y1="30.2288" x2="53.4528" y2="30.2288" gradientUnits="userSpaceOnUse">
<stop stop-color="#60B7FF"/>
<stop offset="0.5857" stop-color="#0182FC"/>
<stop offset="1" stop-color="#2740B0"/>
</linearGradient>
<linearGradient id="paint7_linear" x1="-1.63171" y1="30.229" x2="69.8825" y2="30.229" gradientUnits="userSpaceOnUse">
<stop stop-color="#EAF6FF"/>
<stop offset="0.5213" stop-color="#D8ECFE"/>
<stop offset="1" stop-color="#B3DAFE"/>
</linearGradient>
<linearGradient id="paint8_linear" x1="-0.235133" y1="30.229" x2="45.1889" y2="30.229" gradientUnits="userSpaceOnUse">
<stop stop-color="#EAF6FF"/>
<stop offset="0.5213" stop-color="#D8ECFE"/>
<stop offset="1" stop-color="#B3DAFE"/>
</linearGradient>
<linearGradient id="paint9_linear" x1="-15.4116" y1="38.01" x2="10.5159" y2="38.01" gradientUnits="userSpaceOnUse">
<stop stop-color="#EAF6FF"/>
<stop offset="0.5213" stop-color="#D8ECFE"/>
<stop offset="1" stop-color="#B3DAFE"/>
</linearGradient>
<linearGradient id="paint10_linear" x1="43.5946" y1="52.0259" x2="60.0001" y2="52.0259" gradientUnits="userSpaceOnUse">
<stop stop-color="#EAF6FF"/>
<stop offset="0.5213" stop-color="#D8ECFE"/>
<stop offset="1" stop-color="#B3DAFE"/>
</linearGradient>
<linearGradient id="paint11_linear" x1="37.8825" y1="52.0259" x2="54.8339" y2="52.0259" gradientUnits="userSpaceOnUse">
<stop stop-color="#EAF6FF"/>
<stop offset="0.5213" stop-color="#D8ECFE"/>
<stop offset="1" stop-color="#B3DAFE"/>
</linearGradient>
<linearGradient id="paint12_linear" x1="37.8825" y1="51.8464" x2="54.8338" y2="51.8464" gradientUnits="userSpaceOnUse">
<stop stop-color="#EAF6FF"/>
<stop offset="0.5213" stop-color="#D8ECFE"/>
<stop offset="1" stop-color="#B3DAFE"/>
</linearGradient>
<linearGradient id="paint13_linear" x1="37.8825" y1="48.3758" x2="54.8339" y2="48.3758" gradientUnits="userSpaceOnUse">
<stop stop-color="#EAF6FF"/>
<stop offset="0.5213" stop-color="#D8ECFE"/>
<stop offset="1" stop-color="#B3DAFE"/>
</linearGradient>
<linearGradient id="paint14_linear" x1="44.8375" y1="3.29389" x2="51.0739" y2="3.29389" gradientUnits="userSpaceOnUse">
<stop stop-color="#EAF6FF"/>
<stop offset="0.5213" stop-color="#D8ECFE"/>
<stop offset="1" stop-color="#B3DAFE"/>
</linearGradient>
<linearGradient id="paint15_linear" x1="-1.43076" y1="57.1636" x2="4.8057" y2="57.1636" gradientUnits="userSpaceOnUse">
<stop stop-color="#EAF6FF"/>
<stop offset="0.5213" stop-color="#D8ECFE"/>
<stop offset="1" stop-color="#B3DAFE"/>
</linearGradient>
</defs>
</svg>
