<svg width="78" height="78" viewBox="0 0 78 78" fill="none" xmlns="http://www.w3.org/2000/svg">
<g id="venus">
<g id="Group">
<path id="Vector" d="M77.9906 39.7744C77.9956 39.5166 78 39.2587 78 39C78 31.5786 75.9394 24.4746 72.0918 18.3384L68.707 16.4531L68.7387 13.7681C68.053 12.9625 67.3335 12.1791 66.5771 11.4227C59.211 4.05676 49.4173 0 39 0C28.5827 0 18.789 4.05676 11.4227 11.4227C9.74101 13.1046 8.23388 14.9141 6.90605 16.8276L7.16016 19.1953L4.17742 21.3979C2.93917 23.8412 1.96721 26.4094 1.27253 29.066L3.50391 32.6016L0.366387 33.6363C0.125379 35.3994 0 37.1899 0 39C0 45.8122 1.7355 52.3573 4.99596 58.1318L8.37891 59.2617L8.02379 62.7021C9.06354 64.0551 10.1961 65.3504 11.4227 66.5773C18.789 73.9432 28.5827 78 39 78C49.4173 78 59.211 73.9432 66.5773 66.5773C70.3673 62.7871 73.2786 58.3531 75.2147 53.5234L75.7148 50.1211L76.7226 48.9531C77.1182 47.4433 77.4237 45.9051 77.6362 44.3447L77.2383 42.1992L77.9906 39.7744Z" fill="#FF936B"/>
<g id="shadow">
<path id="Vector_2" d="M78 39C78 31.5786 75.9394 24.4746 72.0918 18.3384L68.707 16.4531L68.7387 13.7681C68.053 12.9625 67.3335 12.1791 66.5771 11.4227C59.211 4.05676 49.4173 0 39 0V78C49.4173 78 59.211 73.9432 66.5773 66.5773C70.3673 62.7871 73.2786 58.3531 75.2147 53.5234L75.7148 50.1211L76.7226 48.9531C77.1182 47.4433 77.4237 45.9051 77.6362 44.3447L77.2383 42.1992L77.9906 39.7744C77.9956 39.5166 78 39.2587 78 39Z" fill="#FF7037"/>
</g>
<path id="Vector_3" d="M49.1165 58.0386C47.607 61.8124 44.0051 64.251 39.9406 64.251H34.4106C33.1486 64.251 32.1255 65.2741 32.1255 66.5361C32.1255 67.7981 33.1486 68.8213 34.4106 68.8213H39.9406C45.8849 68.8213 51.1523 65.2551 53.3599 59.736C54.8695 55.962 58.4714 53.5234 62.5359 53.5234H75.2145C75.8111 52.0351 76.3148 50.5094 76.7226 48.9531H62.5359C56.5917 48.9531 51.3242 52.5193 49.1165 58.0386V58.0386Z" fill="#FFC178"/>
<g id="Group_2">
<path id="Vector_4" d="M62.5359 48.9531C56.5916 48.9531 51.3242 52.5193 49.1165 58.0386C47.607 61.8124 44.0051 64.251 39.9406 64.251H39V68.8213H39.9406C45.8849 68.8213 51.1523 65.2551 53.3599 59.736C54.8695 55.962 58.4714 53.5234 62.5359 53.5234H75.2145C75.8111 52.0351 76.3148 50.5094 76.7226 48.9531H62.5359Z" fill="#FF936B"/>
</g>
<path id="Vector_5" d="M51.365 22.2146C50.3041 25.3975 47.337 27.5361 43.9818 27.5361H42.8086C41.5466 27.5361 40.5234 28.5593 40.5234 29.8213C40.5234 31.0833 41.5466 32.1064 42.8086 32.1064H43.9818C49.3073 32.1064 54.0167 28.7121 55.7008 23.6601C56.7619 20.477 59.729 18.3384 63.084 18.3384H72.0918C71.0932 16.7458 69.9736 15.2188 68.7387 13.7681H63.084C57.7588 13.7681 53.0493 17.1624 51.365 22.2146V22.2146Z" fill="#FF936B"/>
<path id="Vector_6" d="M33.9755 56.391C35.9423 53.6375 39.1365 51.9937 42.5204 51.9937H43.5895C44.8515 51.9937 45.8747 50.9706 45.8747 49.7085C45.8747 48.4465 44.8515 47.4234 43.5895 47.4234H42.5204C37.6638 47.4234 33.0792 49.7826 30.2565 53.7345C28.2898 56.488 25.0954 58.1318 21.7117 58.1318H4.99596C5.89113 59.7172 6.90285 61.2434 8.02379 62.7021H21.7117C26.5681 62.7021 31.1526 60.3429 33.9755 56.391Z" fill="#FFC178"/>
<g id="Group_3">
<path id="Vector_7" d="M43.5894 47.4234H42.5202C41.3228 47.4234 40.142 47.5675 39 47.8428V52.6048C40.1173 52.2064 41.3063 51.9937 42.5202 51.9937H43.5894C44.8514 51.9937 45.8745 50.9706 45.8745 49.7085C45.8745 48.4465 44.8514 47.4234 43.5894 47.4234V47.4234Z" fill="#FF936B"/>
</g>
<path id="Vector_8" d="M50.3231 39.7744C45.2047 39.7744 40.161 38.0439 36.1209 34.9016C31.2826 31.1385 25.2423 29.066 19.1128 29.066H1.27239C0.880711 30.5634 0.578004 32.0889 0.366398 33.6363H19.1129C24.2313 33.6363 29.2751 35.3668 33.3152 38.509C38.1534 42.2722 44.1937 44.3447 50.3233 44.3447H77.6364C77.8414 42.8398 77.9609 41.3146 77.9907 39.7744H50.3231Z" fill="#FFC178"/>
<g id="Group_4">
<path id="Vector_9" d="M50.3231 39.7744C46.36 39.7744 42.4422 38.7361 39 36.8093V41.9165C42.5463 43.5015 46.4162 44.3447 50.3231 44.3447H77.6362C77.8413 42.8398 77.9607 41.3146 77.9906 39.7744H50.3231Z" fill="#FF936B"/>
</g>
<path id="Vector_10" d="M31.5915 17.0439C34.141 14.9192 37.373 13.749 40.6919 13.749H43.8965C45.1585 13.749 46.1816 12.7259 46.1816 11.4639C46.1816 10.2019 45.1585 9.17871 43.8965 9.17871H40.6919C36.3058 9.17871 32.0347 10.725 28.6656 13.5328C26.1161 15.6574 22.8842 16.8276 19.5652 16.8276H6.90604C5.88914 18.2928 4.97736 19.819 4.17726 21.3979H19.5652C23.9512 21.3979 28.2221 19.8516 31.5915 17.0439Z" fill="#FFC178"/>
<g id="Group_5">
<path id="Vector_11" d="M43.8966 9.17871H40.6921C40.1255 9.17871 39.5611 9.20507 39.0001 9.25595V13.8532C39.5597 13.7859 40.1244 13.749 40.6921 13.749H43.8966C45.1586 13.749 46.1818 12.7259 46.1818 11.4639C46.1818 10.2019 45.1586 9.17871 43.8966 9.17871Z" fill="#FF936B"/>
</g>
<g id="Group_6">
<path id="Vector_12" d="M42.0469 25.2422C43.3089 25.2422 44.332 24.2191 44.332 22.957C44.332 21.695 43.3089 20.6719 42.0469 20.6719C40.7848 20.6719 39.7617 21.695 39.7617 22.957C39.7617 24.2191 40.7848 25.2422 42.0469 25.2422Z" fill="#FF936B"/>
<path id="Vector_13" d="M42.0469 25.2422C43.3089 25.2422 44.332 24.2191 44.332 22.957C44.332 21.695 43.3089 20.6719 42.0469 20.6719C40.7848 20.6719 39.7617 21.695 39.7617 22.957C39.7617 24.2191 40.7848 25.2422 42.0469 25.2422Z" fill="#FF936B"/>
<path id="Vector_14" d="M63.375 35.1445C64.6371 35.1445 65.6602 34.1214 65.6602 32.8594C65.6602 31.5973 64.6371 30.5742 63.375 30.5742C62.1129 30.5742 61.0898 31.5973 61.0898 32.8594C61.0898 34.1214 62.1129 35.1445 63.375 35.1445Z" fill="#FF936B"/>
</g>
</g>
<path id="Vector_15" d="M20.7188 51.9492C26.1877 51.9492 30.6211 48.8799 30.6211 45.0938C30.6211 41.3076 26.1877 38.2383 20.7188 38.2383C15.2498 38.2383 10.8164 41.3076 10.8164 45.0938C10.8164 48.8799 15.2498 51.9492 20.7188 51.9492Z" fill="#FFC178"/>
</g>
</svg>
